<?xml version="1.0" encoding="utf-8"?>
<!-- Generator: Adobe Illustrator 19.2.0, SVG Export Plug-In . SVG Version: 6.00 Build 0)  -->
<svg version="1.1" xmlns="http://www.w3.org/2000/svg" xmlns:xlink="http://www.w3.org/1999/xlink" x="0px" y="0px"
	 viewBox="0 0 703.5 703.5" style="enable-background:new 0 0 703.5 703.5;" xml:space="preserve">
<style type="text/css">
	.st0{fill:#FFFFFF;stroke:#818888;stroke-width:0.2;stroke-miterlimit:10;}
	.st1{fill:#CFD2D2;}
	.st2{fill:#818888;}
	.st3{fill:none;stroke:#42423F;stroke-miterlimit:10;}
	.st4{fill:#FFFFFF;}
	.st5{fill:#383838;}
	.st6{fill:none;stroke:#383838;stroke-width:1.5;stroke-linecap:round;stroke-miterlimit:10;}
	.st7{fill:#FFBCB3;}
	.st8{fill:#DB4C2A;}
	.st9{display:none;}
	.st10{fill:#F2F2F2;}
</style>
<g id="Слой_2">
	<circle class="st0" cx="378.5" cy="370.1" r="246.2"/>
	<path class="st1" d="M351.7,0C157.5,0,0,157.5,0,351.7s157.5,351.7,351.7,351.7S703.5,546,703.5,351.7S546,0,351.7,0z M496.6,506
		l-10-15.2h-17.7v-9h-9v9h-11.7v-9h-9v9h-8.7l-26,42h12v29l-22-13h-34v-7h8l-9.5-7.7v-24.8h-11.5v15.4l-14.7-11.9h-11l-35.3,29
		l-70.1-352.6l0.1,0c14.4-13.5,33.7-22,54.9-22.4l0.1,0l0,0c0.3,0,225,298,225,298V506z"/>
	<g>
		<path class="st2" d="M182.6,149.4c0,0-6.3-0.3-17.7-6.3c-2.2-1.2-4.3,1.7-2.2,3.2c1.2,0.9,2.9,0.9,4.3,1.4
			c4.4,1.8,9.7,3.8,12.9,7.4C184.1,160,182.6,149.4,182.6,149.4z"/>
		
			<ellipse transform="matrix(0.7045 -0.7097 0.7097 0.7045 -54.454 157.438)" class="st2" cx="161.9" cy="144.1" rx="4.6" ry="4.6"/>
		<ellipse transform="matrix(0.1001 -0.995 0.995 0.1001 2.2519 290.7232)" class="st1" cx="161.9" cy="144.1" rx="2.3" ry="2.3"/>
	</g>
	<path class="st3" d="M411.7,521.2"/>
	<path class="st4" d="M235.9,99c-7.7-1.1-17.7-2-25.2-0.3c-5.1,1.2-10.1,3.8-15,5.7c-2.9,1.1-5.5,3-7.8,6.1
		c-5.9,7.7-9.5,16.9-11.2,26.4c0.5,18.1,11.5,33.5,27.1,40.5c-1.2-2.6-1.5-5.7-0.8-8.2c1.8-6.7,8.2-9.1,14.4-8.2
		c12.7,1.7,25.7-1.7,37.7-5.4c3.3-1,6.5-2.1,9.8-3.2c2.1-5.2,3.2-10.9,3.2-16.8c0-11.6-4.3-22.1-11.4-30.2
		C250.2,102.1,243.2,100.1,235.9,99z"/>
	<path class="st3" d="M430.6,490.7"/>
	<g>
		<path class="st1" d="M219.3,123.5c4.9,11.3,3.3,23.7-3.5,27.6c-6.9,3.9-18.3-1-25.6-11.1s-3.6-18.7,5.6-23.9
			C205.1,110.9,214.4,112.2,219.3,123.5z"/>
		<ellipse transform="matrix(0.8689 -0.4949 0.4949 0.8689 -39.0732 114.9757)" class="st4" cx="197.5" cy="131.3" rx="4" ry="4"/>
		<ellipse transform="matrix(0.8689 -0.4949 0.4949 0.8689 -34.6672 119.4595)" class="st4" cx="208.2" cy="125.2" rx="4" ry="4"/>
		
			<rect x="185" y="132.9" transform="matrix(0.8689 -0.4949 0.4949 0.8689 -42.5608 110.0886)" class="st1" width="3.1" height="5"/>
		
			<rect x="215.6" y="115.5" transform="matrix(0.8689 -0.4949 0.4949 0.8689 -29.9287 122.9438)" class="st1" width="3.1" height="5"/>
		
			<ellipse transform="matrix(0.8689 -0.4949 0.4949 0.8689 -43.2274 109.4022)" class="st1" cx="184.9" cy="136.3" rx="0.9" ry="6.3"/>
		
			<ellipse transform="matrix(0.8689 -0.4949 0.4949 0.8689 -29.2541 123.6223)" class="st1" cx="218.8" cy="117" rx="0.9" ry="6.3"/>
		<path class="st5" d="M197,129c-0.2,0.1-0.3,0.2-0.5,0.3c0.1,0,0.1,0.1,0.2,0.1c0.7,0.6,1,1.4,0.7,1.8c-0.3,0.4-1.1,0.3-1.8-0.2
			c-0.1,0.6,0,1.2,0.3,1.7c0.8,1.4,2.5,1.8,3.8,1.1s1.8-2.5,1.1-3.8C200,128.7,198.3,128.3,197,129z"/>
		<path class="st5" d="M207.6,123c-0.2,0.1-0.3,0.2-0.5,0.3c0.1,0,0.1,0.1,0.2,0.1c0.7,0.6,1,1.4,0.7,1.8c-0.3,0.4-1.1,0.3-1.8-0.2
			c-0.1,0.6,0,1.2,0.3,1.7c0.8,1.4,2.5,1.8,3.8,1.1s1.8-2.5,1.1-3.8C210.7,122.7,209,122.2,207.6,123z"/>
		<path class="st6" d="M210,135.1c0,0-3.5-1.1-3.9,2.7"/>
	</g>
	<path class="st2" d="M176.7,139.2c0,0.7,0.1,1.4,0.2,2.1c0.1,1.1,0.3,0.7,0.5-1c2-20,18.2-36.2,39-37.6
		c13.6-0.9,26.1,4.8,34.4,14.4c-10.3,2.9-20.6,6.6-30.7,11c-35.3,15.6-64.6,38.8-86.6,66.7c-0.4,0.6-0.8,1.1-1,1.5
		c-0.6,0.9,0.2,1,1.8,0.4c23.1-8.8,60.7-8.5,73.7-9.3c1.7-0.1,4-1.2,5.2-2.3c8.3-7.8,16.1-13.1,24.6-16.9c8.5-3.7,17.8-5.9,29.1-6.8
		c1.7-0.1,4-1.1,5.2-2.2c9.4-9.1,34.5-37.1,56.6-48.2c1.5-0.7,1.9-1.5,0.9-1.6c-0.5-0.1-1.1-0.2-1.8-0.3
		c-21.2-1.5-42.9,0.1-64.5,4.8c-8.4-15.2-25-25-43.5-23.8C194.4,91.8,175.1,113.7,176.7,139.2z"/>
	<ellipse transform="matrix(0.9204 -0.391 0.391 0.9204 -42.1867 103.3835)" class="st4" cx="232.8" cy="155.3" rx="4.1" ry="6.3"/>
	<ellipse transform="matrix(0.8223 -0.569 0.569 0.8223 -53.5456 153.7836)" class="st4" cx="219.5" cy="162.6" rx="4.1" ry="6.3"/>
	
		<ellipse transform="matrix(0.9761 -0.2175 0.2175 0.9761 -26.8571 57.2961)" class="st4" cx="246.8" cy="150.6" rx="4.1" ry="6.3"/>
	
		<ellipse transform="matrix(0.997 -7.760813e-002 7.760813e-002 0.997 -10.7787 20.7002)" class="st4" cx="260.9" cy="149" rx="4.1" ry="6.3"/>
	
		<ellipse transform="matrix(0.7071 -0.7071 0.7071 0.7071 -60.9386 197.6731)" class="st4" cx="208.1" cy="172.4" rx="4.1" ry="6.3"/>
	<circle class="st7" cx="339.8" cy="378.5" r="20.7"/>
	<g>
		<path class="st4" d="M334.9,617.1h-8.6v13.5h-7.1v-13.5h-28.5v-6.2l28-40.1h7.6v39.7h8.6V617.1z M319.1,610.5v-18.7
			c0-3.7,0.1-8.1,0.4-13.2h-0.4c-0.3,0.7-0.8,1.8-1.6,3.2c-0.7,1.4-1.4,2.5-2,3.3l-17.8,25.4H319.1z"/>
		<path class="st4" d="M380.1,600.8c0,10.3-1.6,18-4.9,23.1c-3.3,5-8.2,7.6-14.9,7.6c-6.5,0-11.4-2.6-14.7-7.8
			c-3.3-5.2-5-12.8-5-22.8c0-10.4,1.6-18.1,4.8-23.1s8.2-7.5,14.9-7.5c6.5,0,11.4,2.6,14.8,7.8C378.4,583.2,380.1,590.8,380.1,600.8
			z M348,600.8c0,8.6,1,14.9,3,18.7c2,3.8,5.1,5.7,9.4,5.7c4.3,0,7.5-2,9.5-5.9s3-10.1,3-18.5c0-8.4-1-14.5-3-18.4s-5.1-5.9-9.5-5.9
			c-4.3,0-7.5,1.9-9.4,5.8C349,586.1,348,592.3,348,600.8z"/>
		<path class="st4" d="M430.2,617.1h-8.6v13.5h-7.1v-13.5H386v-6.2l28-40.1h7.6v39.7h8.6V617.1z M414.4,610.5v-18.7
			c0-3.7,0.1-8.1,0.4-13.2h-0.4c-0.3,0.7-0.8,1.8-1.6,3.2c-0.7,1.4-1.4,2.5-2,3.3l-17.8,25.4H414.4z"/>
	</g>
	<g>
		<path class="st4" d="M449.7,578.6c0,1.3-0.5,2.4-1.4,3.1s-2.2,1.1-3.9,1.1H443v5.1h-1.6v-13.1h3.5
			C448.1,574.7,449.7,576,449.7,578.6z M443,581.3h1.3c1.3,0,2.2-0.2,2.8-0.6c0.6-0.4,0.9-1.1,0.9-2c0-0.8-0.3-1.5-0.8-1.9
			c-0.5-0.4-1.4-0.6-2.5-0.6H443V581.3z"/>
		<path class="st4" d="M458.3,587.8l-0.3-1.4h-0.1c-0.5,0.6-1,1-1.5,1.3c-0.5,0.2-1.1,0.3-1.8,0.3c-1,0-1.7-0.3-2.3-0.8
			c-0.5-0.5-0.8-1.2-0.8-2.2c0-2,1.6-3,4.7-3.1l1.7-0.1v-0.6c0-0.7-0.2-1.3-0.5-1.7c-0.3-0.4-0.8-0.5-1.5-0.5c-0.5,0-1,0.1-1.5,0.2
			s-0.9,0.3-1.3,0.5l-0.5-1.2c0.5-0.3,1-0.5,1.6-0.6s1.2-0.2,1.7-0.2c1.2,0,2.1,0.3,2.7,0.8c0.6,0.5,0.9,1.4,0.9,2.5v6.7H458.3z
			 M455,586.7c0.9,0,1.6-0.2,2.1-0.7c0.5-0.5,0.8-1.2,0.8-2.1V583l-1.5,0.1c-1.1,0-2,0.2-2.5,0.5c-0.5,0.3-0.8,0.8-0.8,1.5
			c0,0.5,0.2,0.9,0.5,1.2C454,586.6,454.4,586.7,455,586.7z"/>
		<path class="st4" d="M469.1,587.7l0.1-1.2h-0.1c-0.7,1-1.7,1.5-3,1.5c-1.3,0-2.3-0.4-3-1.3c-0.7-0.9-1.1-2.1-1.1-3.8
			c0-1.6,0.4-2.8,1.1-3.7s1.7-1.4,3-1.4c1.3,0,2.4,0.5,3.1,1.5h0.1l0.2-1.3h1.3v10c0,1.4-0.4,2.5-1.1,3.2s-1.8,1.1-3.3,1.1
			c-1.4,0-2.6-0.2-3.5-0.6v-1.5c1,0.5,2.2,0.8,3.6,0.8c0.8,0,1.5-0.2,2-0.7c0.5-0.5,0.7-1.2,0.7-2V587.7z M466.3,586.7
			c1,0,1.7-0.3,2.2-0.8c0.5-0.5,0.7-1.4,0.7-2.6v-0.4c0-1.3-0.2-2.3-0.7-2.9c-0.5-0.6-1.2-0.9-2.2-0.9c-0.8,0-1.5,0.3-1.9,1
			s-0.7,1.6-0.7,2.8c0,1.2,0.2,2.1,0.7,2.8C464.7,586.4,465.4,586.7,466.3,586.7z"/>
		<path class="st4" d="M478,588c-1.5,0-2.6-0.4-3.5-1.3c-0.8-0.9-1.3-2.1-1.3-3.7c0-1.6,0.4-2.8,1.2-3.8c0.8-0.9,1.8-1.4,3.2-1.4
			c1.2,0,2.2,0.4,3,1.2c0.7,0.8,1.1,1.9,1.1,3.2v1h-6.7c0,1.1,0.3,2,0.9,2.5c0.5,0.6,1.3,0.9,2.3,0.9c0.5,0,1,0,1.5-0.1
			c0.5-0.1,1-0.3,1.7-0.5v1.4c-0.5,0.2-1.1,0.4-1.5,0.5C479.2,588,478.6,588,478,588z M477.6,579.1c-0.8,0-1.4,0.2-1.8,0.7
			c-0.4,0.5-0.7,1.2-0.8,2.1h5c0-0.9-0.2-1.6-0.6-2.1C478.9,579.4,478.3,579.1,477.6,579.1z"/>
		<path class="st4" d="M495.6,587.8v-6.3c0-0.8-0.2-1.4-0.5-1.8s-0.9-0.6-1.7-0.6c-1,0-1.7,0.3-2.2,0.8s-0.7,1.5-0.7,2.7v5.1h-1.6
			V578h1.3l0.2,1.3h0.1c0.3-0.5,0.7-0.9,1.3-1.1c0.5-0.3,1.2-0.4,1.8-0.4c1.2,0,2.1,0.3,2.7,0.9c0.6,0.6,0.9,1.5,0.9,2.7v6.4H495.6z
			"/>
		<path class="st4" d="M508.8,582.9c0,1.6-0.4,2.9-1.2,3.8s-1.9,1.4-3.4,1.4c-0.9,0-1.7-0.2-2.4-0.6c-0.7-0.4-1.2-1-1.6-1.8
			s-0.6-1.7-0.6-2.7c0-1.6,0.4-2.8,1.2-3.7c0.8-0.9,1.9-1.3,3.4-1.3c1.4,0,2.5,0.5,3.3,1.4S508.8,581.3,508.8,582.9z M501.4,582.9
			c0,1.2,0.2,2.2,0.7,2.8c0.5,0.6,1.2,1,2.2,1c0.9,0,1.7-0.3,2.1-1c0.5-0.6,0.7-1.6,0.7-2.8c0-1.2-0.2-2.2-0.7-2.8
			c-0.5-0.6-1.2-0.9-2.2-0.9C502.3,579.2,501.4,580.4,501.4,582.9z"/>
		<path class="st4" d="M514.7,586.7c0.2,0,0.5,0,0.7-0.1c0.3,0,0.5-0.1,0.6-0.1v1.2c-0.1,0.1-0.4,0.1-0.7,0.2
			c-0.3,0.1-0.6,0.1-1,0.1c-1.9,0-2.9-1-2.9-3v-5.7h-1.4v-0.8l1.4-0.6l0.6-2.1h1v2.3h2.8v1.3h-2.8v5.7c0,0.6,0.1,1,0.4,1.3
			C513.8,586.5,514.2,586.7,514.7,586.7z"/>
		<path class="st4" d="M527.3,579.2h-2.5v8.6h-1.6v-8.6h-1.7v-0.8l1.7-0.6v-0.6c0-1.2,0.3-2.1,0.8-2.7c0.5-0.6,1.3-0.9,2.4-0.9
			c0.6,0,1.3,0.1,1.9,0.3l-0.4,1.3c-0.6-0.2-1-0.3-1.5-0.3c-0.5,0-0.9,0.2-1.2,0.5s-0.4,0.9-0.4,1.7v0.6h2.5V579.2z"/>
		<path class="st4" d="M537.6,582.9c0,1.6-0.4,2.9-1.2,3.8s-1.9,1.4-3.4,1.4c-0.9,0-1.7-0.2-2.4-0.6c-0.7-0.4-1.2-1-1.6-1.8
			s-0.6-1.7-0.6-2.7c0-1.6,0.4-2.8,1.2-3.7c0.8-0.9,1.9-1.3,3.4-1.3c1.4,0,2.5,0.5,3.3,1.4S537.6,581.3,537.6,582.9z M530.2,582.9
			c0,1.2,0.2,2.2,0.7,2.8c0.5,0.6,1.2,1,2.2,1c0.9,0,1.7-0.3,2.1-1c0.5-0.6,0.7-1.6,0.7-2.8c0-1.2-0.2-2.2-0.7-2.8
			c-0.5-0.6-1.2-0.9-2.2-0.9C531.2,579.2,530.2,580.4,530.2,582.9z"/>
		<path class="st4" d="M541.7,578v6.3c0,0.8,0.2,1.4,0.5,1.8c0.4,0.4,0.9,0.6,1.7,0.6c1,0,1.7-0.3,2.2-0.8c0.5-0.6,0.7-1.5,0.7-2.7
			V578h1.6v9.8h-1.3l-0.2-1.3h-0.1c-0.3,0.5-0.7,0.8-1.2,1.1c-0.5,0.3-1.2,0.4-1.9,0.4c-1.2,0-2.1-0.3-2.7-0.9s-0.9-1.5-0.9-2.7V578
			H541.7z"/>
		<path class="st4" d="M558.2,587.8v-6.3c0-0.8-0.2-1.4-0.5-1.8s-0.9-0.6-1.7-0.6c-1,0-1.7,0.3-2.2,0.8s-0.7,1.5-0.7,2.7v5.1h-1.6
			V578h1.3l0.2,1.3h0.1c0.3-0.5,0.7-0.9,1.3-1.1c0.5-0.3,1.2-0.4,1.8-0.4c1.2,0,2.1,0.3,2.7,0.9c0.6,0.6,0.9,1.5,0.9,2.7v6.4H558.2z
			"/>
		<path class="st4" d="M566.4,588c-1.3,0-2.3-0.4-3-1.3c-0.7-0.9-1.1-2.1-1.1-3.8c0-1.6,0.4-2.9,1.1-3.8s1.7-1.4,3-1.4
			c1.3,0,2.3,0.5,3,1.5h0.1c0-0.1,0-0.4-0.1-0.7s0-0.6,0-0.7v-3.9h1.6v13.9h-1.3l-0.2-1.3h-0.1C568.7,587.5,567.7,588,566.4,588z
			 M566.6,586.7c1,0,1.7-0.3,2.1-0.8c0.5-0.5,0.7-1.4,0.7-2.6v-0.3c0-1.4-0.2-2.3-0.7-2.9c-0.5-0.6-1.2-0.9-2.2-0.9
			c-0.8,0-1.5,0.3-1.9,1s-0.7,1.6-0.7,2.8c0,1.2,0.2,2.1,0.7,2.8C565.1,586.4,565.8,586.7,566.6,586.7z"/>
	</g>
	<g>
		<path class="st8" d="M433.6,577.2c0,0,0.9,0,2.6,0.1c1.6,0.1,4,0.2,6.8,0.5c5.6,0.5,13.1,1.4,20.4,2.9c1.8,0.4,3.7,0.8,5.5,1.3
			c1.8,0.5,3.5,0.9,5.2,1.5c3.4,1,6.4,2.2,9,3.4c0.6,0.3,1.2,0.6,1.8,0.9c0.6,0.3,1.1,0.6,1.6,0.9c1,0.6,1.8,1.1,2.5,1.6
			c0.7,0.4,1.2,0.9,1.5,1.1c0.3,0.3,0.5,0.4,0.5,0.4s-0.2-0.1-0.6-0.4c-0.4-0.2-0.9-0.6-1.6-1c-0.7-0.4-1.6-0.9-2.6-1.4
			c-0.5-0.3-1-0.5-1.6-0.8c-0.6-0.3-1.2-0.5-1.8-0.8c-2.6-1.1-5.7-2.1-9-2.9c-1.7-0.4-3.4-0.8-5.2-1.2c-1.8-0.4-3.6-0.7-5.5-1
			c-7.3-1.1-14.7-1.7-20.3-1.9c-2.8-0.1-5.1-0.1-6.7-0.2c-1.6,0-2.5,0-2.5,0l0,0c-0.8,0-1.5-0.7-1.5-1.5
			C432.1,577.9,432.7,577.2,433.6,577.2C433.6,577.2,433.6,577.2,433.6,577.2z"/>
	</g>
	<g>
		<path class="st8" d="M454.1,569.1l-0.2-1.3c1.5,0.1,2.9-0.1,4.1-0.6c0.9-0.4,1.5-0.9,2-1.5c0.4-0.6,0.5-1.3,0.1-2.1
			c-0.3-0.7-0.9-1.2-1.6-1.6c-0.8-0.3-1.6-0.6-2.5-0.7c-0.9-0.1-1.9-0.2-2.8-0.4s-1.8-0.4-2.6-0.9c-0.8-0.4-1.4-1.1-1.8-1.9
			c-0.5-1-0.5-2.1-0.2-3.3c0.4-1.2,1-2,2.1-2.4c0.8-0.4,1.7-0.6,2.8-0.7c1.1-0.1,2.1-0.2,2.8-0.2l0.1,1c-1.9,0.2-3.4,0.5-4.5,1
			c-0.7,0.3-1.2,0.8-1.5,1.5c-0.3,0.7-0.3,1.3,0,2c0.2,0.5,0.6,0.9,1,1.2s1,0.5,1.6,0.6c0.6,0.1,1.2,0.2,1.9,0.3
			c0.7,0.1,1.3,0.1,2,0.2c0.7,0.1,1.3,0.3,1.9,0.5c0.6,0.2,1.2,0.5,1.7,1c0.5,0.5,1,1.1,1.3,1.9c0.5,1.1,0.5,2.1,0.2,3.1
			c-0.4,1-1.1,1.7-2.2,2.2c-0.9,0.4-2,0.7-3.2,1C455.6,569.2,454.7,569.2,454.1,569.1z"/>
		<path class="st8" d="M461.9,556.1l-0.8-1c0.3-0.5,0.6-1,1.1-1.4s1.1-0.7,1.6-0.9c2.5-0.9,4.5,0.9,6,5.2c0.2,0.6,0.5,1.5,0.8,2.7
			c0.3,1.2,0.6,2.1,0.8,2.6c0,0.5-0.1,0.8-0.5,0.9c-0.3,0.1-0.6,0-0.9-0.1s-0.5-0.4-0.6-0.8c0-0.1-0.1-0.2-0.1-0.2
			c-0.6,1.2-1.4,2-2.5,2.3c-0.8,0.3-1.6,0.2-2.3-0.2c-0.8-0.4-1.3-1-1.6-1.8c-0.5-1.4-0.4-2.8,0.3-4.3c0.7-1.5,1.7-2.4,3.1-2.9
			c0.1,0,0.1,0,0.2,0s0.1,0,0.2,0c0.1,0,0.2,0,0.2,0c-0.7-1.7-1.7-2.3-2.9-1.9C463.3,554.5,462.6,555.1,461.9,556.1z M468.9,561.5
			c-0.3-1-0.6-1.8-0.8-2.4c-0.2-0.4-0.4-1.1-0.7-1.8l-0.2,0.1c-1,0.4-1.9,1.1-2.5,2.2c-0.6,1.1-0.7,2.1-0.3,3.2
			c0.2,0.5,0.4,0.8,0.8,1c0.4,0.2,0.8,0.2,1.2,0.1C467.1,563.6,468,562.8,468.9,561.5z"/>
		<path class="st8" d="M472.5,553.5l2.3,9c-0.2,0.2-0.5,0.3-0.8,0.4c-0.2,0.1-0.5,0.1-0.8,0.1c-0.2-1-0.6-2.9-1.3-5.7
			c-0.7-2.8-1.1-4.9-1.3-6.3l1.1,0l0.4,1.3c0.6-1,1.4-1.7,2.5-1.9c0.5-0.1,1-0.2,1.3-0.2s0.7,0.1,1.1,0.3c0.4,0.2,0.7,0.6,1,1
			c0.3,0.4,0.6,1.1,0.9,2c0.3,0.9,0.7,1.9,1,3.1c0.3,1.2,0.7,2.7,1.2,4.5c-0.1,0.1-0.3,0.1-0.5,0.2c-0.5,0.1-1,0.2-1.3,0.1
			c-0.1-0.2-0.2-0.6-0.4-1.2c-0.1-0.3-0.2-0.8-0.4-1.6s-0.3-1.4-0.4-1.9c-0.2-0.7-0.4-1.4-0.5-1.9c-0.2-0.5-0.4-1.1-0.7-1.5
			s-0.6-0.9-1-1.1s-0.8-0.3-1.2-0.2c-0.5,0.1-0.9,0.3-1.1,0.4c-0.3,0.1-0.4,0.3-0.5,0.4S472.7,553.2,472.5,553.5z"/>
		<path class="st8" d="M487.2,548.8l0.4,1c-0.4,0.1-1,0.3-1.9,0.5c-0.8,0.3-1.5,0.4-1.9,0.5c0.2,0.5,0.3,1.2,0.4,2.1
			s0.3,1.6,0.4,2.3c0.1,0.6,0.3,1.3,0.5,1.9c0.2,0.6,0.5,1.1,0.9,1.4c0.4,0.3,0.9,0.4,1.5,0.3c0.5-0.1,1-0.3,1.7-0.6
			c0.4,0.5,0.6,0.9,0.8,1.2c-1.2,0.6-2.4,1-3.6,1.2c-0.5,0.1-0.9,0-1.3-0.3s-0.7-0.5-0.9-0.9c-0.2-0.4-0.5-0.9-0.7-1.5
			c-0.2-0.6-0.4-1.2-0.5-1.8s-0.2-1.2-0.3-2c-0.1-0.4-0.1-1-0.2-1.7s-0.2-1.2-0.2-1.5c-0.2,0-0.5,0.1-1.1,0.2s-0.9,0.1-1,0.1
			c-0.3-1-0.4-1.5-0.4-1.6c0.1,0,0.3,0,0.5,0c0.1,0,0.4-0.1,0.7-0.1c0.3-0.1,0.5-0.1,0.7-0.1c0.1,0,0.1,0,0.2,0c0.1,0,0.2,0,0.2,0
			c-0.2-1.7-0.3-3.1-0.4-4.2l1.1,0.1c0.1,0.4,0.1,0.8,0.2,1.2s0.1,0.9,0.2,1.4c0.1,0.5,0.1,0.9,0.2,1.2c0.4,0,1-0.1,1.8-0.2
			C486.2,548.9,486.8,548.8,487.2,548.8z"/>
		<path class="st8" d="M491.2,549.7l-0.5-1.2c0.4-0.4,0.9-0.8,1.5-1c0.6-0.3,1.2-0.4,1.8-0.4c2.6-0.1,4,2.2,4.2,6.7
			c0,0.6,0,1.5,0,2.8c0,1.2,0,2.1,0,2.7c-0.1,0.5-0.3,0.7-0.7,0.7c-0.3,0-0.5-0.1-0.8-0.4s-0.4-0.6-0.4-0.9c0-0.1,0-0.2,0-0.2
			c-0.9,1-2,1.5-3.1,1.5c-0.8,0-1.6-0.3-2.2-0.8c-0.6-0.6-1-1.3-1-2.2c0-1.5,0.5-2.8,1.6-4c1.1-1.2,2.4-1.8,3.8-1.9
			c0.1,0,0.1,0,0.2,0s0.1,0,0.2,0c0.1,0,0.2,0,0.2,0c-0.2-1.8-0.9-2.7-2.3-2.7C493.1,548.5,492.2,548.9,491.2,549.7z M496.3,556.9
			c0-1.1,0-1.9,0-2.5c0-0.5,0-1.1-0.1-2l-0.2,0c-1.1,0-2.1,0.5-3,1.3c-0.9,0.8-1.3,1.8-1.3,3c0,0.5,0.2,0.9,0.5,1.2
			c0.3,0.3,0.7,0.4,1.1,0.4C494,558.3,495,557.8,496.3,556.9z"/>
	</g>
	<g>
		<path class="st8" d="M447.1,599.1l1.3-0.3c0.3,2,0.4,4.9,0.5,8.5s0.1,6,0.2,7.2c-0.1,0.4-0.4,0.7-0.8,0.7c-0.3,0-0.5-0.1-0.8-0.3
			s-0.4-0.5-0.4-0.8c0-0.5,0-1.4,0-2.6v-4.3c-0.3,0-0.8,0-1.3,0.1s-1.1,0.1-1.6,0.1c-0.5,0-0.9,0-1.3,0c-0.4,0-0.7,0-0.8,0
			c0,0.9,0.1,2.1,0.2,3.7c0.1,1.6,0.1,2.7,0.2,3.3c-0.1,0.4-0.4,0.7-0.8,0.7c-0.3,0-0.5-0.1-0.7-0.3s-0.4-0.5-0.4-0.8
			c0-1.2,0.1-3.7,0.1-7.3c0-3.6,0.1-6.3,0.2-8l1,0.2c0,0,0,0.1,0,0.2c0,0.1,0,0.2,0,0.2c0.2,3.6,0.3,5.8,0.3,6.7
			c0.5,0,1-0.1,1.6-0.1c0.6,0,1.2-0.1,1.9-0.2c0.7-0.1,1.2-0.1,1.6-0.1c0,0,0-0.1,0-0.2c0-0.1,0-0.7,0-1.8
			C447.1,602.8,447.1,601.2,447.1,599.1z"/>
		<path class="st8" d="M451.7,605.4l-0.4-1.1c0.4-0.4,0.9-0.7,1.4-0.9s1.2-0.3,1.7-0.3c2.4,0,3.7,2.1,3.7,6.3c0,0.6,0,1.4-0.1,2.6
			c-0.1,1.1-0.1,2-0.1,2.5c-0.1,0.4-0.3,0.7-0.7,0.7c-0.3,0-0.5-0.1-0.7-0.4c-0.2-0.3-0.3-0.5-0.3-0.9c0-0.1,0-0.2,0-0.2
			c-0.9,0.9-1.9,1.3-2.9,1.3c-0.8,0-1.4-0.3-2-0.8c-0.6-0.6-0.9-1.2-0.9-2c0-1.3,0.5-2.6,1.6-3.7c1-1.1,2.2-1.6,3.6-1.6
			c0.1,0,0.1,0,0.2,0c0.1,0,0.1,0,0.2,0c0.1,0,0.1,0,0.2,0c-0.1-1.7-0.8-2.5-2-2.5C453.4,604.4,452.6,604.7,451.7,605.4z
			 M456.2,612.2c0-1,0-1.8,0-2.3c0-0.4,0-1,0-1.8H456c-1,0-2,0.4-2.8,1.2c-0.8,0.8-1.3,1.7-1.3,2.7c0,0.5,0.1,0.8,0.4,1.1
			c0.3,0.3,0.6,0.4,1,0.4C454,613.5,455,613,456.2,612.2z"/>
		<path class="st8" d="M460.1,603.3l1.2,0.2c0,0.3,0,0.5,0,0.7c0.8-0.5,1.6-0.8,2.4-0.8c1.3,0,2.3,0.6,3.1,1.7
			c0.7,1.1,1.1,2.4,1.1,3.8c0,0.7-0.1,1.4-0.2,2.1c-0.1,0.7-0.3,1.3-0.6,2c-0.3,0.7-0.7,1.2-1.3,1.7s-1.3,0.6-2.1,0.6
			c-0.8,0-1.5-0.2-2.2-0.6c0.1,2.5,0.1,4.4,0.2,5.6c-0.1,0.4-0.4,0.7-0.8,0.7c-0.3,0-0.5-0.1-0.8-0.3s-0.4-0.5-0.4-0.8L460.1,603.3z
			 M461.5,605.7l0.1,7c0.2,0.3,0.4,0.6,0.8,0.8c0.4,0.2,0.8,0.3,1.2,0.3c0.6,0,1-0.2,1.4-0.5c0.4-0.4,0.7-0.8,0.8-1.4
			c0.2-0.6,0.3-1.2,0.3-1.7c0.1-0.5,0.1-1.1,0.1-1.6c0-2.5-0.8-3.7-2.5-3.7c-0.5,0-1,0.1-1.5,0.2
			C461.8,605.2,461.6,605.4,461.5,605.7z"/>
		<path class="st8" d="M469.9,603.3l1.2,0.2c0,0.3,0,0.5,0,0.7c0.8-0.5,1.6-0.8,2.4-0.8c1.3,0,2.3,0.6,3.1,1.7
			c0.7,1.1,1.1,2.4,1.1,3.8c0,0.7-0.1,1.4-0.2,2.1c-0.1,0.7-0.3,1.3-0.6,2c-0.3,0.7-0.7,1.2-1.3,1.7s-1.3,0.6-2.1,0.6
			c-0.8,0-1.5-0.2-2.2-0.6c0.1,2.5,0.1,4.4,0.2,5.6c-0.1,0.4-0.4,0.7-0.8,0.7c-0.3,0-0.5-0.1-0.8-0.3s-0.4-0.5-0.4-0.8L469.9,603.3z
			 M471.3,605.7l0.1,7c0.2,0.3,0.4,0.6,0.8,0.8c0.4,0.2,0.8,0.3,1.2,0.3c0.6,0,1-0.2,1.4-0.5c0.4-0.4,0.7-0.8,0.8-1.4
			c0.2-0.6,0.3-1.2,0.3-1.7c0.1-0.5,0.1-1.1,0.1-1.6c0-2.5-0.8-3.7-2.5-3.7c-0.5,0-1,0.1-1.5,0.2
			C471.7,605.2,471.4,605.4,471.3,605.7z"/>
		<path class="st8" d="M481.1,621.2l-1.3-0.8c0.6-1,1.6-3,3.1-5.9c-1.2-1-2.1-2.6-2.7-4.7c-0.6-2.1-1-4.2-1.1-6.3l1.3,0.1
			c0.1,0.3,0.2,1.1,0.5,2.4c0.2,1.2,0.4,2.2,0.6,2.7s0.4,1.3,0.8,2.2s0.8,1.6,1.3,2.2c2-3.9,3-7,3-9.5v-0.2c0.8,0.1,1.3,0.3,1.7,0.4
			c-0.2,1.5-0.6,3.1-1.1,4.6c-0.5,1.6-1.1,3.2-1.8,4.8c-0.7,1.6-1.4,2.9-2,4C482.7,618.3,481.9,619.7,481.1,621.2z"/>
		<path class="st8" d="M496.7,606.1l0.1,8.6c-0.2,0.1-0.5,0.2-0.8,0.2c-0.2,0-0.5,0-0.8-0.1c0-0.9,0.1-2.7,0.1-5.4s0.1-4.7,0.2-6
			l1,0.2l0.1,1.2c0.8-0.8,1.7-1.2,2.7-1.2c0.5,0,0.9,0,1.2,0.1c0.3,0.1,0.6,0.3,0.9,0.5s0.5,0.7,0.6,1.1c0.1,0.5,0.3,1.1,0.4,2
			c0.1,0.9,0.2,1.9,0.3,3s0.1,2.6,0.1,4.4c-0.1,0-0.3,0-0.5,0c-0.5,0-0.9-0.1-1.2-0.2c-0.1-0.2-0.1-0.6-0.1-1.2c0-0.3,0-0.8,0-1.6
			c0-0.8,0-1.4,0-1.8c0-0.7,0-1.3-0.1-1.8s-0.1-1-0.3-1.5c-0.1-0.5-0.3-0.9-0.6-1.2c-0.3-0.3-0.6-0.4-1.1-0.4c-0.5,0-0.9,0-1.1,0.1
			c-0.3,0.1-0.5,0.2-0.6,0.3C497.1,605.6,496.9,605.8,496.7,606.1z"/>
		<path class="st8" d="M513.2,612.7l0.2,1c-0.6,0.2-1.6,0.5-2.8,0.8c-1.3,0.3-2.2,0.4-2.8,0.4c-0.6,0-1.2-0.2-1.6-0.6
			c-0.5-0.4-0.8-0.9-1-1.6c-0.2-0.6-0.4-1.3-0.5-1.9s-0.2-1.2-0.2-1.9c0-3.6,1.6-5.4,4.9-5.4c0.8,0,1.5,0.3,2.1,0.8
			c0.6,0.5,0.9,1.1,0.9,1.9c0,0.4-0.1,0.8-0.4,1.2c-0.2,0.3-0.5,0.6-0.9,0.8c-0.3,0.2-0.8,0.4-1.3,0.5c-0.5,0.2-1,0.3-1.4,0.3
			c-0.4,0.1-0.9,0.2-1.5,0.2c-0.6,0.1-1,0.2-1.2,0.2c0,0.4,0,0.8,0.1,1.1c0,0.3,0.1,0.7,0.2,1s0.3,0.7,0.4,0.9
			c0.2,0.2,0.4,0.4,0.8,0.6c0.3,0.2,0.7,0.2,1.1,0.2c0.5,0,1.2,0,1.9-0.1c0.8-0.1,1.4-0.2,2-0.3S513.2,612.7,513.2,612.7z
			 M505.8,608c2-0.6,3.6-1.2,4.8-1.8c-0.1-0.5-0.2-0.8-0.4-1c-0.2-0.2-0.4-0.3-0.8-0.3c-0.9,0-1.7,0.3-2.4,0.9
			S505.9,607.1,505.8,608z"/>
		<path class="st8" d="M524.9,603.5l1.5,0.2c-0.3,1.1-0.7,2.9-1.3,5.2s-1.1,4.2-1.4,5.7c-0.6,0.1-1.1,0.2-1.5,0.2
			c-0.4,0-0.7,0-1-0.1l-1.2-4.3l-1,4.3c-0.6,0.1-1.1,0.2-1.5,0.2c-0.3,0-0.7,0-1-0.1c-0.2-0.8-0.6-1.9-1-3.6c-0.5-1.6-0.9-3-1.2-4.2
			c-0.3-1.2-0.6-2.4-0.9-3.5l1.4,0.1l2.8,9c0.5-1.4,1-3.1,1.5-5.1c-0.4-1.7-0.8-3-1-4.1l1.4,0.1l2.8,9c0.2-0.7,0.5-1.5,0.7-2.3
			c0.3-0.9,0.5-1.6,0.6-2.2c0.2-0.6,0.4-1.4,0.6-2.4S524.8,603.9,524.9,603.5z"/>
		<path class="st8" d="M535,621.2l-1.3-0.8c0.6-1,1.6-3,3.1-5.9c-1.2-1-2.1-2.6-2.7-4.7c-0.6-2.1-1-4.2-1.1-6.3l1.3,0.1
			c0.1,0.3,0.2,1.1,0.5,2.4c0.2,1.2,0.4,2.2,0.6,2.7s0.4,1.3,0.8,2.2s0.8,1.6,1.3,2.2c2-3.9,3-7,3-9.5v-0.2c0.8,0.1,1.3,0.3,1.7,0.4
			c-0.2,1.5-0.6,3.1-1.1,4.6c-0.5,1.6-1.1,3.2-1.8,4.8c-0.7,1.6-1.4,2.9-2,4C536.6,618.3,535.8,619.7,535,621.2z"/>
		<path class="st8" d="M551.7,612.7l0.2,1c-0.6,0.2-1.6,0.5-2.8,0.8c-1.3,0.3-2.2,0.4-2.8,0.4c-0.6,0-1.2-0.2-1.6-0.6
			c-0.5-0.4-0.8-0.9-1-1.6c-0.2-0.6-0.4-1.3-0.5-1.9s-0.2-1.2-0.2-1.9c0-3.6,1.6-5.4,4.9-5.4c0.8,0,1.5,0.3,2.1,0.8
			c0.6,0.5,0.9,1.1,0.9,1.9c0,0.4-0.1,0.8-0.4,1.2c-0.2,0.3-0.5,0.6-0.9,0.8c-0.3,0.2-0.8,0.4-1.3,0.5c-0.5,0.2-1,0.3-1.4,0.3
			c-0.4,0.1-0.9,0.2-1.5,0.2c-0.6,0.1-1,0.2-1.2,0.2c0,0.4,0,0.8,0.1,1.1c0,0.3,0.1,0.7,0.2,1s0.3,0.7,0.4,0.9
			c0.2,0.2,0.4,0.4,0.8,0.6c0.3,0.2,0.7,0.2,1.1,0.2c0.5,0,1.2,0,1.9-0.1c0.8-0.1,1.4-0.2,2-0.3S551.6,612.7,551.7,612.7z
			 M544.3,608c2-0.6,3.6-1.2,4.8-1.8c-0.1-0.5-0.2-0.8-0.4-1c-0.2-0.2-0.4-0.3-0.8-0.3c-0.9,0-1.7,0.3-2.4,0.9
			S544.4,607.1,544.3,608z"/>
		<path class="st8" d="M553.5,605.4l-0.4-1.1c0.4-0.4,0.9-0.7,1.4-0.9s1.2-0.3,1.7-0.3c2.4,0,3.7,2.1,3.7,6.3c0,0.6,0,1.4-0.1,2.6
			c-0.1,1.1-0.1,2-0.1,2.5c-0.1,0.4-0.3,0.7-0.7,0.7c-0.3,0-0.5-0.1-0.7-0.4c-0.2-0.3-0.3-0.5-0.3-0.9c0-0.1,0-0.2,0-0.2
			c-0.9,0.9-1.9,1.3-2.9,1.3c-0.8,0-1.4-0.3-2-0.8c-0.6-0.6-0.9-1.2-0.9-2c0-1.3,0.5-2.6,1.6-3.7c1-1.1,2.2-1.6,3.6-1.6
			c0.1,0,0.1,0,0.2,0c0.1,0,0.1,0,0.2,0c0.1,0,0.1,0,0.2,0c-0.1-1.7-0.8-2.5-2-2.5C555.3,604.4,554.5,604.7,553.5,605.4z
			 M558.1,612.2c0-1,0-1.8,0-2.3c0-0.4,0-1,0-1.8h-0.2c-1,0-2,0.4-2.8,1.2c-0.8,0.8-1.3,1.7-1.3,2.7c0,0.5,0.1,0.8,0.4,1.1
			c0.3,0.3,0.6,0.4,1,0.4C555.9,613.5,556.9,613,558.1,612.2z"/>
		<path class="st8" d="M568.9,606.5l-1-0.1c-0.3-0.8-0.8-1.2-1.5-1.2c-0.3,0-0.7,0.1-1,0.2s-0.6,0.3-0.9,0.4s-0.5,0.4-0.9,0.7
			c0,0.2,0,0.9,0,2s0,2.4,0,3.7c0,1.4,0,2.1,0.1,2.2c-0.1,0.4-0.4,0.7-0.8,0.7c-0.3,0-0.5-0.1-0.8-0.3c-0.2-0.2-0.4-0.5-0.5-0.8
			c0.3-4.6,0.5-8.2,0.7-10.5l1,0.2l0.1,1.5c1-0.8,1.9-1.3,2.6-1.3c0.8,0,1.5,0.2,2,0.5c0.5,0.4,0.8,0.9,0.8,1.6
			C568.9,606.2,568.9,606.4,568.9,606.5z"/>
		<path class="st8" d="M571.3,611l-1-0.2c-0.1-1-0.3-4.8-0.6-11.4c0.1-0.6,0.3-0.8,0.8-0.8c0.3,0,0.6,0.1,0.8,0.4
			c0.2,0.2,0.4,0.6,0.4,0.9c0,0.8-0.1,2.5-0.2,5.1C571.5,607.6,571.4,609.6,571.3,611z M570.7,612.2c0.4,0,0.7,0.2,1,0.5
			c0.3,0.3,0.4,0.7,0.4,1.2c0,0.3-0.1,0.6-0.2,0.8s-0.4,0.3-0.6,0.3c-0.4,0-0.7-0.2-1-0.5s-0.3-0.7-0.3-1.2c0-0.3,0.1-0.6,0.2-0.8
			C570.2,612.3,570.4,612.2,570.7,612.2z"/>
	</g>
	<path class="st8" d="M320.9,395.6c0,0-2.8,11.6-2.8,17c0,5.4,4.6,0,4.6,0l1.4-3.7c0,0,4.3-12,6.8-12
		C333.4,396.9,320.9,395.6,320.9,395.6z"/>
</g>
<g id="Слой_1" class="st9">
</g>
<g id="Слой_3">
	<path class="st8" d="M359.2,362.3c0,0,11.9-0.5,17.2,0.5s-0.9,4.6-0.9,4.6l-3.9,0.7c0,0-12.6,1.9-13,4.3
		C358.1,374.8,359.2,362.3,359.2,362.3z"/>
	<path class="st8" d="M378.6,362.2c0,0,1.7-2,4.4-2.9c2.7-0.9,3.3,0.2,3,0.9c-0.4,0.7-1.7,0.9-1.7,0.9s3.1-0.9,4.1,0.5
		c1,1.4,0.8,4.6,0,5.2c-0.8,0.5-4.1,0.7-5.8,0.7c-1.7,0-4-0.6-4-0.6V362.2z"/>
	<path class="st10" d="M375.7,360.8c-0.7,0.9-1.1,1.6-0.9,2.8c0.2,1.2,0.2,3.9,1,4.8c0.6,0.6,3,2.1,4-1c0.5-1.5,0.3-7.2-3.1-7.1
		c-0.2,0-0.5,0-0.7,0.2C376,360.5,375.9,360.6,375.7,360.8z"/>
	<path class="st0" d="M364.4,372.9c-0.1-0.5-2.1-3.1-2.2-5.4c-0.1-2.3-1.9-10.3-7.3-14.2s-13.5-2.2-15.8-2.6
		c-2.3-0.4-14.8,0.4-14.2-3.5c0,0-1.8,1.2-2.8,3.2c-1,2.1-1.9,6.4-3.2,8.4c-1.3,1.9-6.1,8.2-7,12.8c-0.9,4.5-1,9.7,0,12.9
		c1,3.2,4,9.3,7.3,11.5c3.3,2.2,9.7,5.5,20.5,4.5c1.3,1,2.6,1.8,4.1,1.7c4.7-0.5,10.9-4.6,15.7-10.6c4.8-5.9,4.6-4.8,6.8-9.9
		C368.5,376.5,364.5,373.4,364.4,372.9z M357.3,381.4c-2,5.6-7.4,9.7-12.9,11.9c-2.7,1.1-9.3,1.4-10.2-2.6c-0.4-1.7,1.3-3.4,2.2-4.5
		c1.2-1.4,5.3-4.2,6.3-4.9c1-0.6,3.5-3.2,3.5-3.2s4.8-6.4,7.5-6.9c1.7-0.3,2.8,0,3.6,0.6c2.4,2,1,6.8,0.2,9.3
		C357.4,381.2,357.4,381.3,357.3,381.4z"/>
	<path class="st8" d="M347.9,346.7c-3.2-3.6-7.7-6.9-10.3-9.2c-2.6-2.3-2.6-1.4-2.5-2.5c0.1-1.1-0.5-4.9-0.8-5.4
		c-0.4-0.5-0.6-1.2-0.6-1.2s0.1-4.9-1.3-5.9s-5,0.9-5,0.9s3.3,10.7,2.8,13.3c-12.5,1.9-20.9,12.3-20.9,12.3s-8.5-6.8-10.3-7.8
		c-2.1-1.2-2.8-0.7-3.4-1.1c-0.6-0.4-1.9-0.7-3-0.6c-0.8,0.1,2,0.9,1.5,0.8c0.4,2.4-1.6,2.1-0.3,4.6c1.7,0.3,2.2,0.8,3.1,1.2
		c1.5,0.8,6.2,3.9,8.3,6.9s1.5,8.9,2.9,15c0.9,4,2.3,7.1,3.1,8.7c0.1-1.7,0.3-3.5,0.7-5.2c0.9-4.5,5.7-10.8,7-12.8
		c1.3-1.9,2.2-6.3,3.2-8.4c1-2.1,2.8-3.2,2.8-3.2c-0.6,3.9,11.8,3.1,14.2,3.5c2,0.3,8-0.8,13,1.1
		C351.2,350.7,349.8,348.8,347.9,346.7z"/>
	<path class="st5" d="M327.4,323.4c0,0-0.7-0.1-1-1.2c-0.3-1-1.8-1.8-0.9-2.7c0.9-0.9-2.3,0-1-1.7c1.3-1.7,3.9-3.2,6.6-4.3
		c2.7-1,5.5-2.4,6.2-1.4s0.8,3.1-0.9,4.3c-1.7,1.2-4.9,1.8-4.8,2.4c0.1,0.6,0.8,3.6,0.8,3.6L327.4,323.4z"/>
	<path class="st5" d="M294.8,340c0,0-0.1-0.7-1.1-1s-1.7-1.8-2.7-1s0-2.3-1.7-1.1c-1.7,1.3-3.3,3.8-4.4,6.5
		c-1.1,2.7-2.6,5.5-1.5,6.2c1,0.7,3.1,0.8,4.3-0.8s1.9-4.9,2.5-4.7s3.6,0.9,3.6,0.9L294.8,340z"/>
	<path class="st8" d="M372.2,389.8c-0.1-1.8-0.9-2-1.9-3.3c-1.2-1.6-1.5-4.3-1.7-6.3c-0.3-2.2-2.1-4.3-2.1-4.3l0,0
		c0.6,1.4,0.9,3.4-0.1,5.7c-2.2,5.2-2.1,4-6.8,9.9c-4.5,5.5-10.2,9.5-14.8,10.4c0.8,0.2,1.7,0.4,2.6,0.6c2.4,0.6,5.2-1,7.4-1.7
		c2.7-0.8,5.4-1.4,8.1-1.8c0.8-0.1,1.7-0.2,2.3,0.4c1.4,1.3,0.2,5.1-0.4,6.7c-0.3,0.8,1.4,1.3,2.6,0c2.7-2.9,4.2-6.7,4.6-10.6
		C372.3,393.7,372.3,391.8,372.2,389.8z"/>
	
		<ellipse transform="matrix(0.7804 -0.6253 0.6253 0.7804 -158.034 292.433)" class="st5" cx="337.3" cy="371.2" rx="2.1" ry="2.6"/>
	<path class="st6" d="M348.4,380.8c0,0,5.9,1.3,6.1-4.8"/>
	<path class="st6" d="M338.7,389.6c0,0,5.9,1.3,6.1-4.8"/>
	<path class="st2" d="M332.6,430.7c-1.5-2.8-10.5-12.8-9-15.7l2.3-4.5c0,0-3.3,0.4-6.7,0.4c0,0,0,0,0-0.1c-2.4-0.1-4.2-0.4-4.2-0.4
		l2.3,4.5c1.5,2.9-7.5,12.9-9,15.7c-6,11.2-10.9,30.6-0.8,40.9c6.4,6.6,18,6.9,24.9,0.9c5.4-4.8,6.8-12.4,6.4-19.3
		C338.5,445.5,336.3,437.6,332.6,430.7z"/>
	<g>
		<path class="st2" d="M258.1,114.7c0,0,4.2-4.6,8-17c0.7-2.4,4.2-1.9,3.8,0.7c-0.2,1.5-1.5,2.7-2,4.1c-1.8,4.3-4.2,9.6-3.8,14.4
			C264.6,123.2,258.1,114.7,258.1,114.7z"/>
		<circle class="st2" cx="268.9" cy="96.3" r="4.6"/>
		<circle class="st1" cx="268.9" cy="96.3" r="3"/>
	</g>
	<circle class="st8" cx="268.9" cy="96.3" r="1.5"/>
	<circle class="st1" cx="161.9" cy="144.2" r="3"/>
	<circle class="st8" cx="161.9" cy="144.2" r="1.5"/>
</g>
</svg>
