<?xml version="1.0" encoding="utf-8"?>
<!-- Generator: Adobe Illustrator 19.2.0, SVG Export Plug-In . SVG Version: 6.00 Build 0)  -->
<svg version="1.1" id="Layer_1" xmlns="http://www.w3.org/2000/svg" xmlns:xlink="http://www.w3.org/1999/xlink" x="0px" y="0px"
	 viewBox="0 0 40 40" style="enable-background:new 0 0 40 40;" xml:space="preserve">
<style type="text/css">
	.st0{clip-path:url(#SVGID_2_);fill:#F2F2F2;}
	.st1{clip-path:url(#SVGID_4_);fill:#818888;}
	.st2{clip-path:url(#SVGID_6_);fill:#FFFFFF;}
</style>
<g>
	<g>
		<defs>
			<circle id="SVGID_1_" cx="20" cy="20" r="20"/>
		</defs>
		<clipPath id="SVGID_2_">
			<use xlink:href="#SVGID_1_"  style="overflow:visible;"/>
		</clipPath>
		<circle class="st0" cx="20" cy="20" r="20"/>
	</g>
	<g>
		<defs>
			<circle id="SVGID_3_" cx="20" cy="20" r="20"/>
		</defs>
		<clipPath id="SVGID_4_">
			<use xlink:href="#SVGID_3_"  style="overflow:visible;"/>
		</clipPath>
		<path class="st1" d="M24.3,26.5l-0.6-1.4c2.3-2.8,4.8-9.4,3.4-15.1c-0.6-2.6-3.1-5.8-7.5-5.8s-6.8,3.2-7.5,5.8
			c-1.4,5.7,1.1,12.3,3.4,15.1l-0.6,1.4C6.5,31.6,2,28.7,2,40.2l19.5,9.5l16-9.5C37.5,28.7,32.9,31.6,24.3,26.5z"/>
	</g>
	<g>
		<defs>
			<circle id="SVGID_5_" cx="20" cy="20" r="20"/>
		</defs>
		<clipPath id="SVGID_6_">
			<use xlink:href="#SVGID_5_"  style="overflow:visible;"/>
		</clipPath>
		<path class="st2" d="M19.6,28.9c2,0,3.7-0.9,4.9-2.3c0,0-0.1,0-0.1-0.1l-0.6-1.4c1.4-1.6,2.8-4.5,3.4-7.8
			c-0.2-0.2-0.4-0.4-0.6-0.6c-0.5-0.5-1.1-0.2-2.2,0.1c-3.7,1-7.9-0.2-8.8-3.7c-0.7,2.8-2.5,4.3-3.3,4.1c0.7,3.3,2.1,6.2,3.4,7.8
			l-0.6,1.4C15,26.6,17.2,28.9,19.6,28.9z"/>
	</g>
</g>
</svg>
