<?xml version="1.0" encoding="utf-8"?>
<!-- Generator: Adobe Illustrator 19.2.0, SVG Export Plug-In . SVG Version: 6.00 Build 0)  -->
<svg version="1.1" id="Capa_1" xmlns="http://www.w3.org/2000/svg" xmlns:xlink="http://www.w3.org/1999/xlink" x="0px" y="0px"
	 viewBox="0 0 512 512" style="enable-background:new 0 0 512 512;" xml:space="preserve">
<style type="text/css">
	.st0{fill:#A8AEAC;}
</style>
<path class="st0" d="M460.8,17.1H51.2C23.4,17.1,0,40.5,0,68.3v281.6c0,27.8,23.4,51.2,51.2,51.2h243.7l82.8,91.1
	c1.6,1.8,4,2.8,6.3,2.8c1,0,2.1-0.2,3.1-0.6c3.3-1.3,5.5-4.4,5.5-8v-85.3h68.3c27.8,0,51.2-23.4,51.2-51.2V68.3
	C512,40.5,488.6,17.1,460.8,17.1z M136.5,238.9c-18.8,0-34.1-15.3-34.1-34.1s15.3-34.1,34.1-34.1s34.1,15.3,34.1,34.1
	S155.4,238.9,136.5,238.9z M256,238.9c-18.8,0-34.1-15.3-34.1-34.1s15.3-34.1,34.1-34.1s34.1,15.3,34.1,34.1S274.8,238.9,256,238.9z
	 M375.5,238.9c-18.8,0-34.1-15.3-34.1-34.1s15.3-34.1,34.1-34.1c18.8,0,34.1,15.3,34.1,34.1S394.3,238.9,375.5,238.9z"/>
</svg>
