<?xml version="1.0" encoding="utf-8"?>
<!-- Generator: Adobe Illustrator 19.2.0, SVG Export Plug-In . SVG Version: 6.00 Build 0)  -->
<svg version="1.1" id="Layer_1" xmlns="http://www.w3.org/2000/svg" xmlns:xlink="http://www.w3.org/1999/xlink" x="0px" y="0px"
	 viewBox="0 0 24 24" style="enable-background:new 0 0 24 24;" xml:space="preserve">
<style type="text/css">
	.st0{fill:#F51E1E;}
	.st1{fill:#2670B8;}
	.st2{fill:#FFFFFF;}
</style>
<g>
	<g>
		<path class="st0" d="M7,0.5c0.9-0.4,1.9-0.6,2.8-0.5c1,0.1,2,0.6,2.7,1.4c0.8,0.8,1.3,1.9,1.3,3c0.1,1-0.2,2-0.7,2.8
			c-0.5,0.9-1.3,1.6-2.2,1.9c-0.6,0.3-1.4,0.5-2.1,0.7c-1.4,0.2-2.7,0.3-4.1,0.3c-0.4,0-0.8,0-1.2-0.1C4.3,9.5,5.2,9,6,8.4
			C5.2,7.7,4.7,6.8,4.5,5.8C4.3,4.8,4.4,3.6,4.9,2.6C5.3,1.7,6.1,1,7,0.5z M6.9,1.7C6.9,1.9,7,2,7.1,2.1c0.6-0.4,1.3-0.6,2-0.6
			c0.9,0,1.8,0.5,2.3,1.1c0.1-0.1,0.3-0.2,0.4-0.3c-0.7-0.8-1.7-1.3-2.7-1.3C8.4,1,7.5,1.3,6.9,1.7z"/>
	</g>
</g>
<g>
	<path class="st1" d="M15.5,1c0.5,0.5,1,0.9,1.4,1.5c0.7,1.1,0.9,2.3,1,3.6c0.1,1.7-0.1,3.5-0.6,5.2c-0.4,1.4-1,2.8-1.9,4
		c0.5-0.2,1.1-0.4,1.6-0.6c0.9-0.3,1.7-0.4,2.6-0.4c0.7,0,1.4,0.2,2,0.5c0.5,0.3,0.9,0.7,1.1,1.2c0.3,0.7,0.4,1.5,0.4,2.3
		c0,0.8-0.3,1.6-0.7,2.4c-0.1-0.6-0.3-1.2-0.6-1.8c-0.2-0.4-0.6-0.8-1.1-1c-0.6-0.2-1.2-0.1-1.8,0c-0.7,0.2-1.4,0.6-2.1,0.9
		c-1.2,0.7-2.2,1.4-3.4,2.1c-1,0.7-2.1,1.3-3.2,1.9c-0.6,0.3-1.3,0.6-2,0.8c-1.3,0.4-2.7,0.4-4.1,0.3c-0.7-0.1-1.4-0.4-1.9-0.8
		c-0.7-0.6-1.1-1.4-1.2-2.2c0.5,0.4,1.1,0.6,1.8,0.8c0.6,0.1,1.2,0.2,1.8,0c0.6-0.2,1.1-0.5,1.6-0.9c0.8-0.8,1.4-1.8,1.8-2.9
		c0.3-0.8,0.5-1.6,0.5-2.5c0-0.1,0-0.1,0-0.2c-0.7-0.1-1.3-0.2-2-0.4c-0.6-0.2-1.2-0.4-1.8-0.7c-0.5-0.2-1-0.5-1.5-0.8
		c-1-0.7-1.8-1.8-2.2-3.1c0.4,0.3,0.9,0.6,1.4,0.7c0.7,0.3,1.5,0.4,2.2,0.4c0.8,0.1,1.6,0.1,2.4,0.1c1.2,0,2.5-0.2,3.6-0.7
		c1.3-0.5,2.5-1.4,3.3-2.5c0.9-1.2,1.4-2.7,1.6-4.2C15.6,3.1,15.6,2,15.5,1z"/>
</g>
<g>
	<path class="st2" d="M6.9,1.7C7.5,1.3,8.4,1,9.2,1.1c1,0,2,0.5,2.7,1.3c-0.1,0.1-0.3,0.2-0.4,0.3C10.9,2,10,1.6,9.1,1.6
		c-0.7,0-1.4,0.2-2,0.6C7,2,6.9,1.9,6.9,1.7z"/>
</g>
</svg>
