<?xml version="1.0" encoding="utf-8"?>
<!-- Generator: Adobe Illustrator 22.0.1, SVG Export Plug-In . SVG Version: 6.00 Build 0)  -->
<svg version="1.1" id="icon" xmlns="http://www.w3.org/2000/svg" xmlns:xlink="http://www.w3.org/1999/xlink" x="0px" y="0px"
	 viewBox="0 0 24 24" style="enable-background:new 0 0 24 24;" xml:space="preserve">
<style type="text/css">
	.st0{fill:#A8ADAD;}
	.st1{fill:#FFFFFF;}
</style>
<g>
	<g>
		<path class="st0" d="M13.7,1.5l0.9,1.8c2.6-1.1,5.7,0,6.9,2.6c1.2,2.6,0.2,5.7-2.3,7l0.9,1.8c3.5-1.8,5-6.1,3.3-9.7
			C21.6,1.5,17.3-0.1,13.7,1.5z"/>
	</g>
	<path class="st0" d="M12,2.3l-0.6,0.3C10.3,3.7,8.3,7.4,6.8,9l-5.4,2.6c-1.2,0.6-1.7,2-1.2,3.3l0.9,1.9c0.6,1.2,2,1.7,3.3,1.2
		l1-0.5l2.3,4.8c0.4,0.8,1.2,1.2,1.8,0.9c0.6-0.3,0.8-1.2,0.5-2l-0.2-0.4l1.2-0.6c0.6-0.3,1.1-0.8,1.3-1.5c0.2-0.6,0.2-1.3-0.1-2
		l-0.6-1.2c2.1,0.1,4.8,0.5,6,0.4l0.6-0.3L12,2.3z M10.5,17.9c-0.1,0.2-0.2,0.3-0.3,0.3l-1.2,0.6l-1.3-2.6l-0.9,0.4l2.7-1.3l1,2.1
		C10.6,17.6,10.6,17.8,10.5,17.9z"/>
	<g>
		<path class="st0" d="M16.2,6.8c0.7-0.2,1.5,0.1,1.8,0.8c0.3,0.7,0.1,1.5-0.6,1.9l0.8,1.7c1.6-0.9,2.3-2.8,1.5-4.5
			C19,5.1,17,4.4,15.4,5.1L16.2,6.8z"/>
	</g>
	<g>
		<circle class="st1" cx="3" cy="14.6" r="1"/>
	</g>
</g>
</svg>
