<svg style="position: absolute; width: 0; height: 0; overflow: hidden;" version="1.1" xmlns="http://www.w3.org/2000/svg" xmlns:xlink="http://www.w3.org/1999/xlink">
<defs>
<symbol id="comment" viewBox="0 0 32 32">
<path d="M0 5.12v13.6c0 2.080 1.76 3.84 3.84 3.84 0.8 0 1.6 0.64 1.6 1.6v6.72l5.12-5.76c0.96-1.44 3.2-2.56 4.96-2.56h12.8c2.080 0 3.84-1.76 3.84-3.84v-13.6c0-2.080-1.76-3.84-3.84-3.84h-24.48c-2.080 0-3.84 1.76-3.84 3.84z"></path>
</symbol>
<symbol id="delete" viewBox="0 0 32 32">
<path d="M27.36 3.52h-4.96c0 0 0 0-0.16 0-0.32-2.080-1.76-3.52-3.52-3.52h-5.44c-1.76 0-3.2 1.44-3.52 3.36 0 0 0 0-0.16 0h-4.96c-1.12 0.64-1.76 1.92-1.6 3.36v0.48h25.76v-0.48c0.32-1.28-0.32-2.56-1.44-3.2z"></path>
<path d="M5.44 9.92l0.16 0.96 1.92 17.28c0.16 2.080 1.76 3.84 3.68 3.84h9.6c1.76 0 3.52-1.76 3.68-3.84l1.92-17.28 0.16-0.96h-21.12zM12 25.44h-1.44l-0.96-12.32h2.24v12.32zM16.96 25.44h-1.92v-12.32h1.92v12.32zM21.28 25.44h-1.44v-12.32h2.24l-0.8 12.32z"></path>
</symbol>
<symbol id="flag" viewBox="0 0 32 32">
<path d="M0 28.32v-24.64c0-1.6 1.28-2.72 2.72-2.72v0 30.24c-1.44 0-2.72-1.28-2.72-2.88z"></path>
<path d="M5.44 9.76v8.96l26.080-8.64c0.64-0.16 0.64-0.48 0-0.8l-26.080-8.48v8.96z"></path>
</symbol>
<symbol id="like" viewBox="0 0 32 32">
<path d="M2.88 13.12h3.36v17.44c0 0-1.76 0-3.36 0s-2.88-1.76-2.88-3.84v-9.76c0-2.080 1.28-3.84 2.88-3.84z"></path>
<path d="M32 14.72v0 0c0-1.76-1.28-3.040-2.88-3.040h-9.12l1.44-6.72c0-0.16 0-0.32 0-0.48 0-0.64-0.32-1.12-0.64-1.6l-1.6-1.6-9.6 9.6c-0.48 0.64-0.8 1.44-0.8 2.24v14.56c0 1.6 1.28 2.88 2.88 2.88h13.12c1.28 0 2.24-0.8 2.72-1.76l4.32-10.24c0.16-0.32 0.16-0.64 0.16-1.12v-2.72z"></path>
</symbol>
  </defs>
<!--</defs>-->
</svg>
