<?xml version="1.0" encoding="utf-8"?>
<!-- Generator: Adobe Illustrator 19.2.0, SVG Export Plug-In . SVG Version: 6.00 Build 0)  -->
<svg version="1.1" id="Layer_1" xmlns="http://www.w3.org/2000/svg" xmlns:xlink="http://www.w3.org/1999/xlink" x="0px" y="0px"
	 viewBox="0 0 205.9 33.1" style="enable-background:new 0 0 205.9 33.1;" xml:space="preserve">
<style type="text/css">
	.st0{fill:#DB4C2A;}
	.st1{fill:#383838;}
</style>
<g>
	<path class="st0" d="M116.7,12.4c0,7.1-4.4,11.2-12.2,11.2h-6.1v8.7h-6.9V1.8h12.9C112.3,1.8,116.7,5.7,116.7,12.4z M110.2,12.6
		c0-3.4-2.2-5.1-6-5.1h-5.7v10.3h5.7C108,17.9,110.2,16.1,110.2,12.6z"/>
	<path class="st0" d="M127.9,0v32.3h-6.7V0H127.9z"/>
	<path class="st0" d="M148.2,32.3v-2.7c-1.6,2-4.1,3.1-7.4,3.1c-5,0-8.1-3.1-8.1-7.3c0-4.4,3.2-7,8.9-7.1h6.4v-0.4
		c0-2.5-1.7-3.9-4.9-3.9c-2.1,0-4.5,0.7-7,2l-2.1-4.6c3.5-1.7,6.5-2.7,10.6-2.7c6.3,0,9.9,3.1,9.9,8.4l0,15.3H148.2z M148.2,24.3
		v-2.1h-5.3c-2.6,0-3.8,0.8-3.8,2.7c0,1.8,1.4,3,3.7,3C145.6,27.8,147.8,26.3,148.2,24.3z"/>
	<path class="st0" d="M170.9,14.4c-3.3,0-5.6,2.5-5.6,6.3c0,3.8,2.3,6.4,5.6,6.4c2.4,0,4.3-0.9,5.4-2.7l4.6,3.1
		c-2,3.3-5.6,5.2-10.4,5.2c-7.1,0-11.9-4.8-11.9-11.9c0-7.2,4.8-12,12-12c4.5,0,8.1,1.8,10.2,4.9l-4.5,3.3
		C175,15.3,173.2,14.3,170.9,14.4z"/>
	<path class="st0" d="M205.9,22.7h-16.8c0.8,3,3.1,4.7,6.1,4.7c2.2,0,4.3-0.9,5.9-2.5l3.5,3.6c-2.4,2.6-5.8,4.1-10,4.1
		c-7.5,0-12.2-4.8-12.2-11.9c0-7.2,4.9-12,12.1-12C202.7,8.7,206.5,14.1,205.9,22.7z M199.7,18.7c-0.1-3.1-2.1-5.1-5.2-5.1
		c-3,0-5,2-5.5,5.1H199.7z"/>
	<path class="st1" d="M15.5,1.8C6.7,1.8,0,8.3,0,17.2c0,8.8,6.7,15.6,15.5,15.6C24.3,32.8,31,26,31,17.2C31,8.4,24.3,1.8,15.5,1.8z
		 M15.6,26.1c-4.8,0-8.9-3.9-8.9-8.8s4-8.8,8.9-8.8c4.8,0,8.7,3.8,8.7,8.8S20.4,26.1,15.6,26.1z"/>
	<path class="st1" d="M58.8,17.8v14.7h-6.7V19.7c0-3-1.7-4.8-4.6-4.8c-3.4,0-5.4,2.6-5.4,6v11.5h-6.7V9h6.7v4.1
		c1.7-2.9,4.4-4.3,8.1-4.4C55.5,8.8,58.8,12.3,58.8,17.8z"/>
	<path class="st1" d="M86.2,22.8H69.4c0.8,3,3.1,4.7,6.1,4.7c2.2,0,4.3-0.9,5.9-2.5l3.5,3.6c-2.4,2.6-5.8,4.1-10,4.1
		c-7.5,0-12.2-4.8-12.2-11.9c0-7.2,4.9-12,12.1-12C82.9,8.8,86.8,14.3,86.2,22.8z M79.9,18.9c-0.1-3.1-2.1-5.1-5.2-5.1
		c-3,0-5,2-5.5,5.1H79.9z"/>
	<circle class="st0" cx="15.5" cy="17.3" r="3.7"/>
</g>
</svg>
