<?xml version="1.0" encoding="utf-8"?>
<!-- Generator: Adobe Illustrator 22.0.1, SVG Export Plug-In . SVG Version: 6.00 Build 0)  -->
<svg version="1.1" id="icon" xmlns="http://www.w3.org/2000/svg" xmlns:xlink="http://www.w3.org/1999/xlink" x="0px" y="0px"
	 viewBox="0 0 24 24" style="enable-background:new 0 0 24 24;" xml:space="preserve">
<style type="text/css">
	.st0{fill:#A8ADAD;}
</style>
<g>
	<g>
		<rect x="0" y="21.1" class="st0" width="24" height="2.1"/>
	</g>
	<path class="st0" d="M2.8,13.6l-1,0.7c-0.2,0.1-0.3,0.3-0.4,0.5L0,18.2c-0.1,0.2,0,0.5,0.1,0.7c0.1,0.2,0.3,0.3,0.5,0.3
		c0.1,0,0.1,0,0.2,0l3.9-0.3c0.2,0,0.4-0.1,0.6-0.3l0.8-0.6L2.8,13.6z"/>
	<g>
		<path class="st0" d="M21.5,7L22,6.7l1.7-1.2c0.3-0.2,0.4-0.7,0.1-1l-2.6-3.3c-0.2-0.3-0.7-0.4-1-0.1l-1.4,1c0,0-0.5,0.3-0.5,0.3
			l-0.3,0.2L21.5,7z"/>
		<polygon class="st0" points="16.4,3.7 5.3,11.8 4.5,12.3 7.9,16.8 8.8,16.2 19.8,8.2 		"/>
	</g>
</g>
</svg>
