<?xml version="1.0" encoding="utf-8"?>
<!-- Generator: Adobe Illustrator 19.2.0, SVG Export Plug-In . SVG Version: 6.00 Build 0)  -->
<svg version="1.1" id="Layer_1" xmlns="http://www.w3.org/2000/svg" xmlns:xlink="http://www.w3.org/1999/xlink" x="0px" y="0px"
	 viewBox="0 0 5 20" style="enable-background:new 0 0 5 20;" xml:space="preserve">
<style type="text/css">
	.st0{fill:#DB4C2A;}
</style>
<g>
	<path class="st0" d="M2.6,13.4c0.6,0,1.2-0.5,1.2-1.1l0.8-10c0-0.6-0.1-1.1-0.5-1.6S3.1,0,2.6,0C1.9,0,1.3,0.2,0.9,0.7
		c-0.3,0.4-0.5,1-0.5,1.5l0.8,10C1.3,12.9,1.8,13.4,2.6,13.4L2.6,13.4z"/>
	<path class="st0" d="M2.6,16.8c-0.9,0-1.6,0.7-1.6,1.6S1.7,20,2.6,20s1.6-0.7,1.6-1.6C4.2,17.6,3.4,16.8,2.6,16.8L2.6,16.8z"/>
</g>
</svg>
