<?xml version="1.0" encoding="utf-8"?>
<!-- Generator: Adobe Illustrator 19.2.0, SVG Export Plug-In . SVG Version: 6.00 Build 0)  -->
<svg version="1.1" id="Capa_1" xmlns="http://www.w3.org/2000/svg" xmlns:xlink="http://www.w3.org/1999/xlink" x="0px" y="0px"
	 viewBox="0 0 29.1 29.1" style="enable-background:new 0 0 29.1 29.1;" xml:space="preserve">
<style type="text/css">
	.st0{fill:#DB4C2A;}
</style>
<g>
	<g>
		<path class="st0" d="M7.9,7.9c3.2-3.2,8.1-3.7,11.8-1.4c-1.3,1.2-2.7,2.7-2.7,2.7c-1,1.2,0.1,1.9,0.7,1.9l6.8,0c0.4,0,0.7,0,0.7,0
			s0.3,0,0.7,0h1.3c0.4,0,0.7-0.3,0.7-0.7V1.2c0-0.9-0.9-1.7-1.9-0.7c0,0-1.6,1.6-2.7,2.7C17.6-1,9.6-0.6,4.5,4.5
			c-3,3-4.4,6.9-4.2,10.8h4.8C5,12.7,5.9,10,7.9,7.9z"/>
		<path class="st0" d="M24,13.8c0.2,2.7-0.7,5.4-2.8,7.4c-3.2,3.2-8.1,3.7-11.8,1.4c1.3-1.2,2.7-2.7,2.7-2.7c1-1.2-0.1-1.9-0.7-1.9
			l-6.8,0c-0.4,0-0.7,0-0.7,0s-0.3,0-0.7,0H1.9c-0.4,0-0.7,0.3-0.7,0.7V28c0,0.9,0.9,1.7,1.9,0.7c0,0,1.6-1.6,2.7-2.7
			c5.7,4.1,13.6,3.7,18.7-1.4c3-3,4.4-6.9,4.2-10.8L24,13.8L24,13.8z"/>
	</g>
</g>
</svg>
