<?xml version="1.0" encoding="utf-8"?>
<!-- Generator: Adobe Illustrator 19.2.0, SVG Export Plug-In . SVG Version: 6.00 Build 0)  -->
<svg version="1.1" id="Layer_1" xmlns="http://www.w3.org/2000/svg" xmlns:xlink="http://www.w3.org/1999/xlink" x="0px" y="0px"
	 viewBox="0 0 14.9 20" style="enable-background:new 0 0 14.9 20;" xml:space="preserve">
<style type="text/css">
	.st0{fill:#818888;}
</style>
<g>
	<path class="st0" d="M1.7,19c0,0.5,0.5,1,1,1h9.4c0.5,0,1-0.4,1-1l0.6-13.1c0-0.6-0.4-1-1-1H2.1c-0.6,0-1,0.5-1,1L1.7,19z M9.6,8.4
		C9.6,8.2,9.8,8,10,8h0.7c0.2,0,0.4,0.2,0.4,0.4v8.1c0,0.2-0.2,0.4-0.4,0.4H10c-0.2,0-0.4-0.2-0.4-0.4V8.4z M6.7,8.4
		C6.7,8.2,6.9,8,7.1,8h0.7C8,8,8.2,8.2,8.2,8.4v8.1c0,0.2-0.2,0.4-0.4,0.4H7.1c-0.2,0-0.4-0.2-0.4-0.4V8.4z M3.9,8.4
		C3.9,8.2,4,8,4.3,8h0.7c0.2,0,0.4,0.2,0.4,0.4v8.1c0,0.2-0.2,0.4-0.4,0.4H4.3c-0.2,0-0.4-0.2-0.4-0.4V8.4z M3.9,8.4"/>
	<path class="st0" d="M14.3,1H9.9V0.2C9.9,0.1,9.8,0,9.7,0H5.2C5.1,0,5,0.1,5,0.2V1H1.6C0.7,1,0,1.8,0,2.7v0c0,0.5,0.4,1,1,1h12.9
		c0.5,0,1-0.4,1-1v-1C14.9,1.3,14.6,1,14.3,1L14.3,1z M14.3,1"/>
</g>
</svg>
