<?xml version="1.0" encoding="utf-8"?>
<!-- Generator: Adobe Illustrator 19.2.0, SVG Export Plug-In . SVG Version: 6.00 Build 0)  -->
<svg version="1.1" id="Layer_1" xmlns="http://www.w3.org/2000/svg" xmlns:xlink="http://www.w3.org/1999/xlink" x="0px" y="0px"
	 viewBox="0 0 796 600" style="enable-background:new 0 0 796 600;" xml:space="preserve">
<style type="text/css">
	.st0{fill:#FFFFFF;}
	.st1{fill:#383838;}
	.st2{clip-path:url(#SVGID_2_);}
	.st3{fill:#818888;}
	.st4{fill:#CFD2D2;}
	.st5{clip-path:url(#SVGID_2_);fill:#FFFFFF;}
	.st6{fill:none;stroke:#383838;stroke-width:1.5;stroke-linecap:round;stroke-miterlimit:10;}
	.st7{clip-path:url(#SVGID_2_);fill:#818888;}
	.st8{clip-path:url(#SVGID_2_);fill:#383838;}
	.st9{clip-path:url(#SVGID_2_);fill:#DB4C2A;}
	.st10{clip-path:url(#SVGID_2_);fill:#CFD2D2;}
	.st11{fill:#DB4C2A;}
	.st12{fill:none;stroke:#383838;stroke-width:2;stroke-linecap:round;stroke-miterlimit:10;}
	.st13{fill:none;stroke:#CFD2D2;stroke-width:2;stroke-miterlimit:10;}
</style>
<g>
	<path class="st0" d="M222.3,565.2c20.6,1.1,60.5-18.3,79.8-10.1c19.3,8.2,80.7-4,113.4-3.7c32.7,0.3,46.8-10.2,80.6-12.5
		s127.2-20.6,154.1-17.9c9.8,1,27,2.5,44.8,4c31.4-52.1,49.5-113.1,49.5-178.4C744.5,155.8,589.7,1,398.8,1
		C207.9,1,53.1,155.8,53.1,346.7c0,90.2,34.6,172.4,91.2,234c10.1-3.5,21.7-6.7,30.6-7.1C194.8,572.8,201.7,564.1,222.3,565.2z"/>
	<path class="st1" d="M551,392.7c0,0,3.1,13.6,1.9,19.9c-1.2,6.2,17.5-1.9,17.5-1.9s-6.8-9-6.8-21.8
		C563.6,377.5,551,392.7,551,392.7z"/>
	<g>
		<path class="st1" d="M542.3,486.1c-0.2,0-0.4,0-0.7-0.1c-0.8-0.4-1.1-1.3-0.8-2.1c1-2.1,3.1-8,1.5-10.9c-0.3-0.6-0.9-1.3-2.6-1.5
			c-7.7-0.9-16.1,9.2-16.2,9.3c-0.5,0.7-1.5,0.8-2.2,0.2c-0.7-0.5-0.8-1.5-0.2-2.2c0.4-0.5,9.5-11.6,19-10.5c2.9,0.3,4.3,1.9,5,3.1
			c2.7,4.7-0.9,12.8-1.4,13.7C543.4,485.8,542.9,486.1,542.3,486.1z"/>
	</g>
	<path class="st1" d="M527.4,429.4c0,0-5.4,2.2-5.8,2.4c-5.7,2.6-10.8,6-13,12.2c-1.7,4.8-1.6,10.6,0.8,15.2
		c3.4,6.5,12.3,10.8,20.7,10.6c8.4-0.1,11.6,1.5,11.6,1.5l0.3-1.8c0,0,0.1-1.3-8.3-2.1s-14.9-2.2-19.3-7.7c-4.2-5.1-3.9-15.7,1.6-20
		c3.6-2.8,8-5,12.6-5.6C528.5,434.2,527.4,429.4,527.4,429.4z"/>
	<g>
		<defs>
			<path id="SVGID_1_" d="M153.4,580.7c0,0,2.3-6.5,22.2-7.3s26.7-9.5,47.4-8.4s60.5-18.3,79.8-10.1s80.7-4,113.4-3.7
				s46.8-10.2,80.6-12.5c33.8-2.3,127.2-20.6,154.1-17.9c26.9,2.7,44.8,2.5,44.8,2.5l-27.7-128.5l-435.3-80.9L7.5,387.2l118,177.7
				L153.4,580.7z"/>
		</defs>
		<clipPath id="SVGID_2_">
			<use xlink:href="#SVGID_1_"  style="overflow:visible;"/>
		</clipPath>
		<g class="st2">
			<path class="st3" d="M251.9,452.9c0,0-10.3-11.2-19.5-41c-1.8-5.8-10.2-4.5-9.3,1.8c0.5,3.7,3.5,6.5,5,9.9
				c4.5,10.5,10.2,23.1,9.3,34.8C236.2,473.5,251.9,452.9,251.9,452.9z"/>
			
				<ellipse transform="matrix(1 -3.610492e-003 3.610492e-003 1 -1.4723 0.8165)" class="st3" cx="225.4" cy="408.2" rx="11.2" ry="11.2"/>
			
				<ellipse transform="matrix(0.7744 -0.6327 0.6327 0.7744 -207.4201 234.7314)" class="st4" cx="225.4" cy="408.2" rx="5.5" ry="5.5"/>
		</g>
		<path class="st5" d="M429.5,457.8c-11.2-15.1-26.9-33.7-42.7-43.6c-10.8-6.8-23.8-10.9-35.4-16c-7-3-14.6-4.1-23.9-3
			c-23.3,2.9-45.3,12.7-64.4,26c-30.1,31.8-37.8,77-23,115.7c2.6-6.5,7.2-12.3,12.6-15.4c14.6-8.3,29.5-1.5,38.8,10.7
			c18.8,24.8,46.9,41.1,73.9,55.3c7.3,3.9,14.8,7.6,22.2,11.4c12.4-5.4,24.1-13.1,34.2-23.3c19.8-19.8,30.5-45.3,32.2-71.3
			C448.9,487.5,440.3,472.2,429.5,457.8z"/>
		<g class="st2">
			<path class="st4" d="M359.1,471.4c-11,27.9-34.9,46.4-53.4,41.3c-18.5-5.1-29.6-33.2-24.8-62.8c4.7-29.6,25.9-38.1,50.7-31.4
				C356.3,425.4,370.1,443.6,359.1,471.4z"/>
			
				<ellipse transform="matrix(0.2645 -0.9644 0.9644 0.2645 -204.4109 626.6083)" class="st0" cx="308.6" cy="447.3" rx="9.6" ry="9.6"/>
			
				<ellipse transform="matrix(0.2645 -0.9644 0.9644 0.2645 -190.8968 660.0595)" class="st0" cx="337.3" cy="455.2" rx="9.6" ry="9.6"/>
			
				<rect x="276.6" y="431.8" transform="matrix(0.2645 -0.9644 0.9644 0.2645 -212.1697 593.036)" class="st4" width="12.2" height="7.6"/>
			
				<rect x="358.8" y="454.4" transform="matrix(0.2645 -0.9644 0.9644 0.2645 -173.4245 688.9409)" class="st4" width="12.2" height="7.6"/>
			
				<ellipse transform="matrix(0.2645 -0.9644 0.9644 0.2645 -214.1966 587.9327)" class="st4" cx="278.3" cy="434.4" rx="15.2" ry="2.2"/>
			
				<ellipse transform="matrix(0.2645 -0.9644 0.9644 0.2645 -171.3377 694.0201)" class="st4" cx="369.3" cy="459.3" rx="15.2" ry="2.2"/>
			<path class="st1" d="M311.4,442.5c-0.5-0.1-0.9-0.2-1.4-0.2c0,0.2,0.1,0.4,0.1,0.6c0.3,2.2-0.6,4.2-2,4.3
				c-1.3,0.1-2.5-1.4-2.8-3.4c-1.1,0.9-1.9,2.1-2.3,3.5c-1,3.6,1.1,7.4,4.8,8.4s7.4-1.1,8.4-4.8C317.2,447.3,315,443.5,311.4,442.5z
				"/>
			<path class="st1" d="M340.1,450.4c-0.5-0.1-0.9-0.2-1.4-0.2c0,0.2,0.1,0.4,0.1,0.6c0.3,2.2-0.6,4.2-2,4.3
				c-1.3,0.1-2.5-1.4-2.8-3.4c-1.1,0.9-1.9,2.1-2.3,3.5c-1,3.6,1.1,7.4,4.8,8.4c3.6,1,7.4-1.1,8.4-4.8
				C345.9,455.2,343.7,451.4,340.1,450.4z"/>
			<path class="st6" d="M323.4,475.3c0,0-4.2-7.9-11.2-2.1"/>
		</g>
		<path class="st7" d="M569.6,632.4C535.8,593.5,496,559,450.8,530.2c11.7-40.4,0.1-85.7-33.6-115.3
			c-46.4-40.7-117.1-36.1-157.8,10.3c-1.1,1.3-2.2,2.5-3.2,3.8c-1.7,2.2-0.7,1.7,2.4-0.8c37.7-30.9,93.3-30.8,131.2,2.4
			c24.8,21.8,36.4,53,34.3,83.6c-22.6-12.7-46.4-24-71.4-33.7c-87.1-33.8-177.1-44.1-262.6-34.1c-1.7,0.3-3.2,0.6-4.4,0.8
			c-2.4,0.5-1.3,2.2,2.3,3.8c54.5,24.5,118.5,89.4,142.2,110.4c3,2.7,8.8,4.7,12.8,4.9c27.6,1,50.1,5.2,71.2,13.3
			c21,8.2,40.5,20.3,61.5,38.2c3.1,2.6,8.7,5,12.8,5c31.8,0.5,122.7-4.3,179.5,14.3c3.8,1.3,5.7,0.8,4.3-1.2
			C571.5,635,570.6,633.8,569.6,632.4z"/>
		<path class="st8" d="M86.3,449.4c0.6,0.4,1.4,0.8,2.3,1.3c54.5,24.5,118.5,89.4,142.2,110.4c3,2.7,8.8,4.7,12.8,4.9
			c27.6,1,50.1,5.2,71.2,13.3c21,8.2,40.5,20.3,61.5,38.2c3.1,2.6,8.7,5,12.8,5c31.8,0.5,122.7-4.3,179.5,14.3
			c3.8,1.3,5.7,0.8,4.3-1.2C337.1,480.1,131.6,453.5,86.3,449.4z"/>
		
			<ellipse transform="matrix(0.3744 -0.9273 0.9273 0.3744 -303.9016 647.3887)" class="st5" cx="327.8" cy="548.9" rx="15.2" ry="9.9"/>
		
			<ellipse transform="matrix(0.1791 -0.9838 0.9838 0.1791 -289.8846 729.8336)" class="st5" cx="292.4" cy="538.6" rx="15.2" ry="9.9"/>
		
			<ellipse transform="matrix(0.5364 -0.844 0.844 0.5364 -309.954 565.569)" class="st5" cx="359.8" cy="564.9" rx="15.2" ry="9.9"/>
		
			<ellipse transform="matrix(0.6501 -0.7599 0.7599 0.6501 -310.2141 499.0263)" class="st5" cx="386.7" cy="586.3" rx="15.2" ry="9.9"/>
		<ellipse class="st5" cx="256.3" cy="535.9" rx="9.9" ry="15.2"/>
		<g class="st2">
			<path class="st3" d="M440.5,522.7c0,0,15.2-0.7,42.8-15.3c5.3-2.8,10.4,4,5.3,7.8c-3,2.2-7.1,2.1-10.5,3.5
				c-10.6,4.3-23.5,9.2-31.1,18.1C437.1,548.4,440.5,522.7,440.5,522.7z"/>
			
				<ellipse transform="matrix(0.7071 -0.7071 0.7071 0.7071 -216.5865 496.3136)" class="st3" cx="490.8" cy="509.6" rx="11.2" ry="11.2"/>
			
				<ellipse transform="matrix(0.7071 -0.7071 0.7071 0.7071 -216.5865 496.3136)" class="st4" cx="490.8" cy="509.6" rx="7.2" ry="7.2"/>
		</g>
		
			<ellipse transform="matrix(0.7071 -0.7071 0.7071 0.7071 -216.5865 496.3136)" class="st9" cx="490.8" cy="509.6" rx="3.7" ry="3.7"/>
		
			<ellipse transform="matrix(0.7071 -0.7071 0.7071 0.7071 -222.7396 278.9977)" class="st10" cx="225.4" cy="408.4" rx="7.2" ry="7.2"/>
		
			<ellipse transform="matrix(0.7071 -0.7071 0.7071 0.7071 -222.7396 278.9977)" class="st9" cx="225.4" cy="408.4" rx="3.7" ry="3.7"/>
	</g>
	<g>
		<path class="st4" d="M152.8,581.2c0,0,0,0,0-0.1c0-0.1,0.1-0.2,0.2-0.4c0.1-0.3,0.4-0.7,0.7-1.1c0.7-0.9,2-2.1,3.8-3.2
			c3.7-2.2,9.7-4.1,17.4-5c1.7-0.3,3.9-0.5,5.7-0.9c0.5-0.1,1-0.2,1.4-0.3c0.5-0.1,1-0.2,1.5-0.4c1-0.2,2-0.5,3.1-0.8
			c4.1-1.2,8.5-3,13.6-4.8c2.6-0.9,5.3-1.7,8.3-2.4c2.9-0.6,6.1-1.1,9.2-1.2c1.6-0.1,3.2-0.1,4.8-0.1c0.7,0,1.4,0,2.2,0
			c0.4,0,0.7,0,1,0l0.9-0.1c2.7-0.2,5.6-0.7,8.6-1.3c6-1.2,12.4-3,19.1-4.8c6.7-1.8,13.8-3.6,21.4-4.8c3.8-0.6,7.7-1.1,11.9-1.1
			c4.1,0,8.4,0.2,12.9,1.5l1.7,0.5c0.6,0.2,1.1,0.4,1.7,0.7c0.7,0.3,1.8,0.8,2.6,1.1c1.3,0.5,3.1,1,4.9,1.4
			c3.6,0.8,7.4,1.2,11.4,1.5c7.9,0.5,16,0.5,24.3,0.1c8.3-0.4,16.6-1.1,25-2c8.4-0.9,16.9-1.8,25.5-2.8c4.3-0.5,8.6-0.9,12.9-1.2
			c1.1-0.1,2.2-0.2,3.3-0.2l3.2-0.2l3.2-0.2c1.1-0.1,2.2-0.1,3.2-0.2c2.1-0.2,4.1-0.4,6.2-0.7l3.1-0.5l3.1-0.6
			c2-0.3,4.1-0.9,6.1-1.3c2-0.5,4-1,6.1-1.6c4-1,8.1-2.3,12.2-3.4c4.1-1.2,8.3-2.3,12.5-3.2c2.1-0.5,4.3-0.9,6.4-1.3
			c2.1-0.4,4.3-0.8,6.4-1.1c2.1-0.3,4.3-0.7,6.4-0.9c2.1-0.2,4.2-0.5,6.3-0.7c2-0.2,4.1-0.4,6.1-0.7c2-0.3,4-0.5,5.9-0.8
			c4-0.6,8-1.1,11.9-1.7c15.8-2.5,31.2-4.9,45.9-6.8c14.7-1.9,28.6-3.6,41.5-4.7c13-1,24.9-1.8,35.8-1.3c1.4,0.1,2.8,0.3,4.1,0.4
			c0.7,0.1,1.3,0.1,2,0.2c0.6,0.1,1.2,0.2,1.8,0.3c2.4,0.4,4.7,0.7,7,1.1c4.5,0.6,8.6,1.2,12.3,1.7c7.4,1,13.3,1.7,17.3,2.1
			c4,0.4,6.1,0.6,6.1,0.6l0,1.3c0,0-2.2,0.3-6.2,0.5c-4,0.3-10,0.6-17.6,0.7c-3.8,0.1-8,0-12.6-0.1c-2.3-0.1-4.7-0.1-7.1-0.2
			c-0.6,0-1.2,0-1.9-0.1c-0.6,0-1.2,0-1.8,0c-1.2,0-2.4,0-3.6,0c-2.5,0.2-5.1,0.4-7.8,0.6c-1.4,0.2-2.7,0.3-4.1,0.5
			c-1.4,0.2-2.8,0.3-4.2,0.5c-2.9,0.4-5.8,0.8-8.8,1.2c-3,0.5-6.1,0.9-9.3,1.4c-12.6,2-26.4,4.3-40.9,6.7c-14.6,2.4-30,4.8-46,6.7
			c-4,0.5-8.1,0.9-12.2,1.4c-2.1,0.2-4.2,0.4-6.3,0.6c-2.1,0.2-4.1,0.3-6.2,0.4c-2,0.1-4.1,0.3-6.2,0.4c-2,0.1-4,0.4-6,0.5
			c-2,0.2-4,0.5-6,0.8c-2,0.3-4,0.6-6.1,1c-8.1,1.5-16.4,3.3-25,4.9c-2.1,0.4-4.3,0.7-6.5,1c-2.2,0.2-4.4,0.6-6.6,0.7l-3.3,0.3
			l-3.3,0.1c-2.2,0.1-4.5,0.1-6.7,0.1c-1.1,0-2.2,0-3.3-0.1l-3.2-0.1l-3.2-0.1c-1-0.1-2.1-0.1-3.2-0.1c-4.2-0.1-8.5,0-12.7,0.2
			c-8.5,0.3-17,1.1-25.4,1.9c-8.4,0.8-16.8,1.7-25,2.7c-4.2,0.4-8.3,0.9-12.4,1.3c-4.1,0.4-8.2,0.7-12.4,0.9
			c-4.1,0.2-8.3,0.2-12.5-0.1l-1.6-0.2l-1.6-0.2c-1-0.1-2.3-0.4-3.5-0.7c-1.1-0.3-1.8-0.5-2.9-0.9c-0.4-0.1-0.7-0.2-1.1-0.3
			l-1.2-0.2c-3.1-0.6-6.5-0.5-10-0.2c-3.4,0.3-6.9,0.9-10.4,1.6c-6.9,1.4-13.8,3.2-20.5,4.8c-6.7,1.7-13.4,3.3-20,4.4
			c-3.3,0.5-6.7,0.9-10.1,1l-1.4,0c-0.4,0-1,0-1.3,0c-0.8,0-1.6-0.1-2.4-0.1c-1.4-0.1-2.8-0.2-4.1-0.2c-0.7,0-1.3,0-2,0
			c-0.7,0-1.3,0.1-2,0.1c-0.7,0-1.3,0.1-1.9,0.2c-0.6,0.1-1.3,0.1-1.9,0.2c-2.5,0.3-5,0.9-7.5,1.5c-2.5,0.7-5,1.3-7.3,1.9
			c-2.4,0.6-4.8,1.2-7.2,1.5c-1.2,0.2-2.3,0.4-3.5,0.5c-0.6,0.1-1.1,0.1-1.7,0.2c-0.6,0-1.1,0.1-1.7,0.1c-2.3,0.2-4.1,0.1-6.1,0.1
			c-7.3-0.2-13,0.5-16.6,1.9c-1.8,0.6-3,1.4-3.7,2c-0.4,0.3-0.6,0.6-0.7,0.7c-0.1,0.1-0.1,0.1-0.1,0.2c0,0,0,0.1,0,0.1L152.8,581.2z
			"/>
	</g>
	<g>
		<path class="st4" d="M596.7,550.7c0,0,0.8-0.2,2.3-0.4c1.5-0.3,3.7-0.5,6.5-0.9c2.8-0.4,6-0.6,9.9-0.9c1.9-0.1,3.9-0.3,6.1-0.3
			c2.1-0.1,4.4-0.2,6.7-0.2c2.3,0,4.8,0,7.3,0c2.5,0,5.1,0.2,7.8,0.4c5.4,0.5,11,1.7,16.8,2.9c5.8,1.2,11.9,2.1,18,2.2
			c6.2,0.2,12.4-0.1,18.8-0.7c6.3-0.6,12.6-1.2,18.9-1.1c3.1,0,6.2,0.1,9.3,0.2c3.1,0.1,6.1,0.2,9.1,0.4c3,0.2,5.9,0.5,8.9,1
			c1.5,0.2,2.9,0.5,4.4,0.8c1.5,0.4,3,0.8,4.4,1.2c1.5,0.4,2.6,0.8,3.9,1.3c1.2,0.4,2.4,0.9,3.6,1.3c2.4,0.9,4.6,1.7,6.8,2.5
			c8.7,3.2,16,6.2,21.1,8.4c5.1,2.2,8,3.6,8,3.6l-0.2,1.3c0,0-3.3,0.4-8.9,0.2c-5.6-0.1-13.6-0.7-23-2.3c-2.3-0.4-4.8-0.8-7.3-1.4
			c-1.3-0.2-2.5-0.5-3.8-0.8c-1.2-0.3-2.6-0.6-3.8-0.8c-1.2-0.2-2.4-0.5-3.6-0.7c-1.3-0.2-2.6-0.4-3.9-0.6c-2.6-0.5-5.4-0.9-8.2-1.3
			c-2.8-0.5-5.7-0.9-8.7-1.3c-2.9-0.5-5.9-0.8-9-1.3c-3-0.4-6.1-0.9-9.2-1.5c-3.1-0.6-6.2-1.2-9.3-1.8c-3.1-0.6-6.2-1.2-9.3-1.6
			c-3.1-0.4-6.2-0.7-9.3-0.8c-6.1-0.4-12.2,0-18.1,0.8c-5.9,0.7-11.6,1.6-17,1.6c-2.7,0-5.3,0-7.8-0.2c-1.3-0.1-2.5-0.2-3.7-0.3
			c-1.2-0.1-2.4-0.2-3.6-0.3c-2.3-0.3-4.6-0.5-6.7-0.8c-2.1-0.3-4.2-0.7-6.1-1c-3.8-0.7-7.2-1.5-9.9-2.3c-2.7-0.7-4.8-1.5-6.2-2
			c-1.4-0.5-2.2-0.9-2.2-0.9L596.7,550.7z"/>
	</g>
	<g>
		<path class="st4" d="M392.3,579.4c0,0,0.1-0.3,0.5-0.8c0.3-0.5,0.9-1.1,1.8-1.8c0.9-0.7,2.1-1.3,3.5-2c0.7-0.3,1.5-0.6,2.4-0.9
			c0.9-0.3,1.8-0.5,2.7-0.7c1-0.2,2-0.4,3.1-0.5c1.1-0.1,2.2-0.2,3.4-0.3c1.2,0,2.4-0.1,3.7-0.1c0.6,0,1.3,0,1.9,0c0.3,0,0.7,0,1,0
			l0.2,0l0.1,0c0,0-0.2,0-0.1,0l0.1,0l0.5,0c0.6,0,1.3,0,2,0c0.3,0,0.7,0,1,0c0.3,0,0.6,0,0.9,0c1.2,0,2.4-0.1,3.8-0.2
			c1.3,0,2.7-0.2,4.1-0.4c1.4-0.2,2.8-0.4,4.3-0.6c3-0.4,6.2-1,9.7-1.4c3.5-0.4,7.4-0.6,11.4-0.2c1,0.1,2,0.3,3,0.4
			c1,0.2,2,0.4,3,0.6c1,0.2,2,0.5,2.9,0.8l1.4,0.4l0.7,0.2c0.2,0-0.1,0-0.1,0l0.1,0l0.2,0.1l0.3,0.1l1.3,0.4l1.1,0.3
			c0.7,0.2,1.7,0.4,2.5,0.6c1.8,0.4,3.6,0.7,5.5,1c7.6,1.1,15.8,1,24,0.4c4.1-0.3,8.3-0.7,12.5-1.1c4.2-0.4,8.5-0.9,12.8-1
			c4.4-0.1,8.9-0.1,13.5,1c1.2,0.2,2.3,0.6,3.5,1c0.6,0.2,1.2,0.5,1.8,0.7c0.6,0.2,1.2,0.5,1.7,0.8l0.9,0.5l0.2,0.1l0.1,0.1
			c0.2,0.1-0.2-0.1-0.1-0.1l0.3,0.2l1.4,0.7l1,0.4l0.5,0.2l0.6,0.2c3.3,1.2,7.1,2,10.8,2.7c3.8,0.6,7.6,1.1,11.4,1.6
			c7.6,0.9,15,1.6,22.1,2.5c7.1,0.9,13.8,1.8,20,2.8c12.4,2,22.9,4.2,30,6.3c3.6,1,6.4,2,8.3,2.6c1.9,0.7,2.9,1.1,2.9,1.1l-0.3,1.3
			c0,0-1.1,0-3,0c-2,0-4.9,0.1-8.5,0.1c-3.7,0-8.1,0.1-13.2,0.2c-5.1,0-10.8,0.1-17.1,0c-6.3-0.1-13.1-0.3-20.3-0.8
			c-7.2-0.5-14.9-1.3-22.8-2.7c-4-0.7-8-1.6-12.1-2.7c-4.1-1.1-8.3-2.4-12.6-4.4l-0.8-0.4l-0.9-0.5c-0.6-0.3-1.2-0.7-1.7-1l-1.3-0.9
			l-0.8-0.5l-0.5-0.3c-1.3-0.9-2.8-1.8-4.4-2.4c-1.6-0.7-3.5-1.3-5.3-1.8c-1.9-0.5-3.8-1-5.8-1.3c-8-1.4-16.4-1.6-24.6-1.1
			c-8.2,0.4-16.2,1.7-24.3,2.6c-2,0.2-4.1,0.4-6.1,0.4c-1.1,0-2,0-3.2,0l-1.7-0.1c-0.5,0-1-0.1-1.4-0.1l-0.4,0l-0.2,0l-0.1,0
			c0,0-0.3-0.1-0.2,0l-0.7-0.1l-1.3-0.1l-1.3-0.1l-1.3-0.1c-1.7-0.2-3.3-0.2-4.9-0.3c-3.2-0.1-6.3,0.1-9.5,0.3
			c-3.2,0.3-6.4,0.6-9.7,0.8c-3.3,0.2-6.5,0.3-9.6,0c-0.8-0.1-1.5-0.1-2.3-0.2c-0.8-0.1-1.5-0.2-2.3-0.3c-0.4-0.1-0.7-0.1-1.1-0.2
			c-0.3-0.1-0.7-0.1-1-0.2c-0.6-0.1-1.3-0.3-1.9-0.4c-0.3-0.1-0.7-0.1-1-0.2c-0.3-0.1-0.6-0.1-0.9-0.2c-0.6-0.1-1.1-0.3-1.7-0.4
			c-1.1-0.3-2.2-0.4-3.2-0.7c-1-0.2-2-0.4-3-0.5c-0.9-0.1-1.9-0.3-2.7-0.3c-1.7-0.2-3.2-0.2-4.5-0.1c-1.3,0.1-2.4,0.2-3.3,0.5
			c-0.9,0.2-1.5,0.5-1.9,0.7c-0.4,0.2-0.5,0.3-0.5,0.3L392.3,579.4z"/>
	</g>
	<g>
		<path class="st11" d="M103.2,259.9c0,0,0.2,0.5,0.5,1.4c0.3,0.9,0.8,2.1,1.5,3.8c0.7,1.6,1.5,3.6,2.5,5.9c1,2.3,2.1,4.8,3.4,7.6
			c1.3,2.8,2.6,5.8,4.2,8.9c1.5,3.2,3.1,6.5,4.8,9.9c1.7,3.4,3.5,6.9,5.4,10.5c1.9,3.5,3.8,7.1,5.9,10.7c2,3.5,4,7.1,6.1,10.5
			c2.1,3.4,4.1,6.8,6.2,10c2.1,3.2,4.1,6.4,6.1,9.2c1,1.4,2,2.9,2.9,4.2c0.5,0.7,0.9,1.3,1.4,2c0.5,0.6,0.9,1.3,1.4,1.9
			c1.8,2.5,3.5,4.7,5,6.7c1.5,2,3,3.6,4.1,5c2.3,2.8,3.6,4.4,3.6,4.4s-1.5-1.5-4-4c-1.3-1.3-2.8-2.8-4.6-4.6
			c-1.7-1.9-3.6-3.9-5.7-6.2c-0.5-0.6-1.1-1.2-1.6-1.7c-0.5-0.6-1.1-1.2-1.6-1.9c-1.1-1.3-2.2-2.6-3.3-3.9c-2.3-2.7-4.7-5.6-7.1-8.7
			c-2.5-3-4.8-6.2-7.3-9.5c-2.5-3.2-4.8-6.6-7.2-10c-2.4-3.4-4.7-6.8-7-10.2c-2.2-3.4-4.4-6.8-6.5-10.1c-2.1-3.3-4.1-6.5-5.9-9.5
			c-1.9-3-3.6-6-5.1-8.7c-1.6-2.7-2.9-5.2-4.2-7.4c-1.2-2.2-2.3-4.2-3.1-5.8c-0.9-1.6-1.5-2.9-2-3.8c-0.4-0.9-0.7-1.3-0.7-1.3
			c-1.6-3.2-0.4-7.1,2.8-8.8c3.2-1.6,7.1-0.4,8.8,2.8C103,259.4,103.1,259.6,103.2,259.9L103.2,259.9z"/>
	</g>
	<g>
		<path class="st11" d="M57.8,318.5c0,0,0.3,0.4,1,1.1c0.6,0.7,1.5,1.7,2.7,3c1.2,1.3,2.7,2.9,4.3,4.7c1.7,1.8,3.6,3.8,5.8,6
			c2.1,2.2,4.4,4.6,6.9,7c2.5,2.5,5.2,5,7.9,7.7c2.8,2.6,5.7,5.3,8.6,8c3,2.7,6,5.4,9.1,8.1c3.1,2.6,6.2,5.3,9.3,7.8
			c3.1,2.5,6.2,5,9.3,7.3c3,2.3,6,4.6,8.9,6.6c1.4,1,2.8,2,4.2,3c0.7,0.5,1.3,0.9,2,1.4c0.7,0.4,1.3,0.9,2,1.3
			c2.6,1.7,4.9,3.2,7,4.6c2.1,1.3,4,2.4,5.5,3.3c3.1,1.8,4.9,2.9,4.9,2.9s-1.9-0.9-5.1-2.4c-1.6-0.8-3.6-1.7-5.9-2.8
			c-2.2-1.2-4.7-2.5-7.5-3.9c-0.7-0.4-1.4-0.7-2.1-1.1c-0.7-0.4-1.4-0.8-2.1-1.2c-1.4-0.8-2.9-1.7-4.5-2.6c-3.1-1.7-6.3-3.7-9.6-5.7
			c-3.3-2-6.7-4.2-10.1-6.5c-3.4-2.2-6.8-4.6-10.2-7c-3.4-2.4-6.7-4.8-10-7.2c-3.3-2.5-6.5-4.9-9.5-7.3c-3.1-2.4-6-4.7-8.8-7
			c-2.8-2.2-5.4-4.4-7.8-6.4c-2.4-2-4.5-3.9-6.5-5.5c-1.9-1.7-3.6-3.1-4.9-4.4c-1.4-1.2-2.4-2.2-3.2-2.9c-0.7-0.7-1.1-1-1.1-1
			c-2.6-2.5-2.8-6.6-0.3-9.2c2.5-2.6,6.6-2.8,9.2-0.3C57.5,318.1,57.6,318.3,57.8,318.5L57.8,318.5z"/>
	</g>
	<g>
		<path class="st11" d="M54.6,248c0,0,0.3,0.6,0.9,1.7c0.6,1.1,1.5,2.6,2.7,4.6c1.2,2,2.7,4.4,4.4,7.2c1.7,2.7,3.7,5.9,5.9,9.2
			c1.1,1.7,2.2,3.4,3.4,5.2c1.2,1.8,2.5,3.7,3.7,5.6c2.5,3.8,5.4,7.8,8.2,11.9c2.9,4.1,5.9,8.3,9.1,12.5c3.2,4.2,6.4,8.5,9.7,12.7
			c1.7,2.1,3.3,4.2,5,6.3c1.7,2.1,3.4,4.1,5.1,6.1c1.7,2,3.4,4,5,6c1.7,1.9,3.4,3.9,5.1,5.7c1.7,1.9,3.3,3.7,4.9,5.6
			c1.7,1.8,3.3,3.5,4.9,5.2c3.2,3.4,6.1,6.6,9,9.4c2.9,2.8,5.5,5.4,7.8,7.7c2.4,2.2,4.5,4.1,6.3,5.7c3.5,3.2,5.5,5,5.5,5
			s-2.1-1.7-5.8-4.6c-1.9-1.5-4.1-3.2-6.7-5.3c-2.5-2.1-5.3-4.5-8.4-7.2c-3.1-2.6-6.3-5.6-9.8-8.7c-1.7-1.6-3.5-3.2-5.3-4.8
			c-1.7-1.7-3.5-3.4-5.4-5.2c-1.8-1.8-3.7-3.6-5.5-5.4c-1.8-1.9-3.7-3.8-5.5-5.7c-1.8-1.9-3.8-3.8-5.6-5.8c-1.8-2-3.7-4-5.5-6
			c-3.7-3.9-7.2-8.1-10.8-12.1c-3.5-4-6.9-8.1-10.2-11.9c-3.2-4-6.4-7.7-9.2-11.4c-1.4-1.8-2.8-3.6-4.2-5.3
			c-1.3-1.7-2.6-3.4-3.9-5.1c-2.5-3.2-4.7-6.3-6.7-8.9c-1.9-2.7-3.6-5-5-7c-1.4-2-2.5-3.5-3.2-4.6c-0.7-1.1-1.1-1.6-1.1-1.6
			c-2-3-1.2-7,1.7-9c3-2,7-1.2,9,1.7C54.4,247.7,54.5,247.8,54.6,248L54.6,248z"/>
	</g>
	<g>
		<path class="st3" d="M597.1,285.5l-10.4-16.9l-1.8,0.9l-1.8,0.9l6.8,18.6c0,0,1.5-1.2,3.7,3c2.2,4.1,19.6,40.5,19.6,40.5l1.8-0.9
			l0,0l1.8-0.9c0,0-17.7-36.2-19.6-40.5C595.2,285.9,597.1,285.5,597.1,285.5z"/>
		<path class="st11" d="M614.6,323.5c-1.8-4.3-4.6-2.2-4.6-2.2s-3.4,0.9-1.1,5c2.3,4,16.3,42.8,21.1,51.1c3.2,5.6,6.4,7,9.7,5.1
			c3.5-1.5,4.4-4.8,2-10.8C638.1,362.8,616.4,327.8,614.6,323.5z"/>
	</g>
	<path class="st3" d="M548.2,487c0.3,0.4,0.5,0.7,0.8,1c5.5,6.2,17.1,2.3,25.7,0c8.6-2.3,11.6-2.9,13.2-5.5c1.3-2.1,2.1-4.8,3.1-7.7
		C573,474.2,556.9,478,548.2,487z"/>
	<path class="st3" d="M596.5,411.8c-2.2-2.3-4.5-4.1-7.1-5.4c-2.8,8.1-5.4,20-6.3,36.5c-0.6,12.3-0.7,23.5-0.6,32
		c2.8-0.1,5.6-0.1,8.5,0c1.8-5.2,3.4-11.6,5.4-19.6C599.6,442.9,607.4,423.4,596.5,411.8z"/>
	<path class="st4" d="M583.1,442.9c0.9-16.5,3.5-28.4,6.3-36.5c-10.3-5.3-23.4-3.2-36.5-0.1c-16.4,3.9-24.1,6.2-27.3,14
		c-3.1,7.8,9.3,35,9.3,35s7.8,24,13.2,31.7c7.3-7.6,19.8-11.4,34.3-12.1C582.4,466.4,582.5,455.2,583.1,442.9z"/>
	<path class="st3" d="M587.6,323.1c-1.2-3.2-2.9-6.2-5.6-8.4c-4.4-3.6-9.5-4.1-14.9-4.5c4.6,7.1,5,18.5,6.1,26.6
		c1.5,10.9-5.4,46.4-7.7,56.4c1.2-0.4,9.2-2.7,10-3.1c10.5-6.4,14.4-21.3,15.6-32.7c0.8-7.4,0.2-15.1-0.9-22.4
		C589.6,331,589,326.8,587.6,323.1z"/>
	<path class="st1" d="M512.8,347.4c0,0-4.3-0.9-5,2.4s2.7,18.8,5,20c2.4,1.2,7.9,0,7.9,0l-2.5-20L512.8,347.4z"/>
	<path class="st1" d="M602.1,507.8c-4.4-2-6.7-3.1-11.4-6.1c-2.6-1.7-5.9-5.2-7.6-7.8c-1.1-1.7-2.3-5-2.8-6.9
		c-0.4-1.4,1.2-6.9-1.1-6.3c-1.9,0.5-2.5,2.1-2.6,3.8c-0.1,2.3,0.3,4.7,1.1,6.9c2.5,7.5,11.7,13.2,15,15.9
		c-1.4-1.1-9.5,0.3-10.9,0.7c-4.2,1.3-9.4,7.1-7.2,11.9c3.9,8.6,12.6,5.1,19.2,3.4c1.7-0.4,12.1-2.3,12.5-3.7
		C607.9,515.4,606.2,509.7,602.1,507.8z"/>
	<path class="st1" d="M572.9,517c-1.2-4.7-5.8-4.9-9.5-7.3c-3.8-2.4-5.5-6.3-5-10.7c0.2-2.1,0.9-4.2,1.6-6.3
		c0.2-0.6,3.5-7.9,0.4-6.4c-2.8,1.3-3.9,6.4-4.5,9c-1.1,4.3-2.6,8.7,0.5,12.6c2.8,3.5,7.3,6.6,7.3,6.6s-9.2-3.5-15.4-1.9
		c-6.2,1.6-8.6,4.5-8.6,8.7c0,9.2,8.6,7.4,15.4,6.6c5.7-0.6,11.3-1.5,17-2.4C572.7,523,573.6,519.6,572.9,517z"/>
	<path class="st4" d="M580.5,346.9c-1.1-8.1-8.8-29.6-13.4-36.7c-16-1-32.5,4.9-47.6,12.8c-16.4,8.6-5.5,26.7-5.5,26.7
		s8.6,26.2,11.2,31.7c2.6,5.5,12.2,15.6,20,15.6c6.7,0,12.8-1.7,20.4-3.9C582.5,388.1,582,357.7,580.5,346.9z"/>
	<path class="st1" d="M586.3,330.3c2.4-1.1,5.5,0,7.2,2.5c3,4.3,2.9,10.5,2.2,15.6c-0.6,4-2,4.2-5.2,5.2c-0.7,0.2-1.4,0.4-2.1,0.3
		c-1.1-0.2-2-1.1-2.6-2.1c-2.5-3.8-2.6-8.8-2.7-13.5c0-1.6,0-3.3,0.5-4.8C584.2,331.8,585.1,330.8,586.3,330.3z"/>
	<path class="st1" d="M638.4,355.2c0-0.2,0-0.5-0.2-0.6c-1.8-1.7-3.3,7.7-3.6,8.3c-1,2.4-2.7,4.1-5,5.2c-5-1-6.4-4.5-7.2-8.2
		c-0.9-2.3-1.9-4.7-2.8-7.1c-0.3,0.2-0.5,0.6-0.5,0.6s-1.9,14.8,9.3,18.8c-8.4,47.8-32.4,49.6-32.4,49.6s-3.6,1.2,0,5.8
		c3.6,4.7,33.8-16.4,35.4-55.4c0-0.3,2-1.8,2.3-2.1c1-1.1,1.7-2.3,2.4-3.6C637.9,363.1,638.5,359.1,638.4,355.2z"/>
	<path class="st0" d="M549.8,373.4c0.2,0,0.3-0.1,0.5-0.1c2.1-0.6,4.1-1.3,5.9-2.5c3.3-2.2,4-9.4,8.6-8.8c4.4,0.6,3.4,7.8,2.5,10.6
		c-1.7,5.2-5.6,9.6-10.7,11.7c-4.7,2-11.3,2.1-15.8-0.7c-2.8-1.7-6.9-6.3-4.8-9.7c1.7-2.8,3-2,5.5-0.9
		C544.4,374.1,546.8,374.2,549.8,373.4z"/>
	<path class="st0" d="M551,353.9c0,0-6.8-16.9,0.8-19c7.6-2.1,11,12.3,11,12.3S557.6,348,551,353.9z"/>
	<path class="st0" d="M542,356.7c0,0-0.7-16.9-7.9-15.8c-7.3,1.1-4.7,14.6-4.7,14.6S534.1,354.1,542,356.7z"/>
	<path class="st12" d="M546,332.5c4-5.8,4.6-4,9.5-2.6"/>
	<path class="st12" d="M527.4,338.7c4-5.8,4.6-4,9.5-2.6"/>
	<path class="st1" d="M557.6,345.6c-0.1-0.3-0.2-0.6-0.4-0.9c-0.1,0.1-0.2,0.2-0.3,0.3c-1.2,1.1-2.7,1.3-3.4,0.6
		c-0.6-0.7-0.2-2,0.9-3c-0.9-0.3-2-0.3-3,0c-1.3,0.4-2.3,1.4-2.9,2.6c0.4,2.2,0.9,4.2,1.4,5.8c0.9,0.7,2,1.1,3.2,1
		c1.5-1.2,2.9-2.1,4.2-2.7C557.9,348.2,558,346.9,557.6,345.6z"/>
	<path class="st1" d="M537.3,349.9c-0.1-0.3-0.2-0.6-0.4-0.8c-0.1,0.1-0.2,0.2-0.3,0.3c-1.1,1-2.5,1.2-3.1,0.5
		c-0.5-0.6-0.2-1.9,0.8-2.8c-0.9-0.3-1.8-0.3-2.8,0c-1.2,0.4-2.1,1.2-2.6,2.2c-0.1,1.6,0,3.1,0.1,4.2c0.4,0.7,1,1.3,1.7,1.7
		c1-0.1,2.5-0.2,4.4,0C537.1,354.3,538,352,537.3,349.9z"/>
	<line class="st13" x1="544.5" y1="373.8" x2="543.2" y2="384.6"/>
	<line class="st13" x1="550.3" y1="373.2" x2="553.2" y2="385.2"/>
	<line class="st13" x1="557.3" y1="369.8" x2="563.5" y2="379.2"/>
</g>
</svg>
