<svg version="1" xmlns="http://www.w3.org/2000/svg" width="933.333" height="933.333" viewBox="0 0 700.000000 700.000000"><path d="M327.8.5c-.2.1-4.3.6-9.3.9-13.6 1-16.7 1.4-33 4.1-83.5 14-156.9 55.8-208.7 119-19.4 23.7-36.6 52.2-48.7 81.1-10 23.9-14.9 40.3-21.6 71.5-.3 1.6-3.1 20-4 26.4-2.9 20.7-2.6 69.2.4 91.2.6 3.7 1.3 9 1.6 11.8.8 5.6 6.3 32.4 7 33.5.2.4.7 2.1 1 3.8 1.3 7.8 10.6 34.7 16.5 48.2 14 31.9 26.9 53.4 47.5 79.5 44.6 56.4 108.9 98.1 179.5 116.3 11.4 3 23.5 5.6 30.6 6.8 2 .3 4.6.8 5.8 1 1.1.2 4.8.7 8.1 1 3.3.3 6.3.8 6.6 1 1.5.9 25.3 1.9 43.9 1.9 21.3-.1 38.7-1.1 51-3.1 1.4-.2 5.4-.9 9-1.5 3.6-.5 8.3-1.4 10.5-1.9 2.2-.5 5.4-1.1 7.1-1.4 5.7-1 25.8-6.5 35.4-9.6 35.3-11.6 71.5-30.5 99.5-51.9C624.2 583.7 666.3 520.9 687 446c2.8-10.3 6.9-28.5 7.5-34 .3-2.5.8-5.2 1-6 .6-2.2 2.3-16.8 3.2-27.3 1.4-17.3.6-68.3-1.1-73.9-.3-.7-.7-3.8-1-6.8-.3-3-1-8-1.5-11-.6-3-1.2-6.6-1.5-8-1-6.2-4.9-23.1-6.7-29.5-2.8-9.8-7.9-25.6-8.9-28-.5-1.1-2.3-5.6-4.1-10-20.4-52.7-59.3-103.9-105.8-139.6C543.4 53 512.8 35.7 485 25.1c-3-1.2-6.4-2.6-7.5-3.1-2.5-1.1-27.1-8.9-29.9-9.4-1.2-.2-4.8-1.1-8.1-2-3.3-.8-7.8-1.8-10-2.2-2.2-.3-4.2-.7-4.5-.9-.7-.4-16.7-3.2-22.5-3.9-7.5-.9-14-1.7-19-2.2-5.3-.6-55.2-1.4-55.7-.9zM376 152.3c1.4.3 5.9 1.1 10 1.7 17 2.5 34.8 8.2 53 16.8 33 15.6 62.8 43.1 82.4 75.9 13.1 21.9 23 51.8 26.3 78.9 1.6 12.6.8 46.4-1.2 57.6-.3 1.6-.7 3.8-.9 5-3.7 21-12.7 45-24.4 65.3-5.1 8.9-16 24-21.3 29.6-1.9 2-4.6 5-6 6.5-3.3 3.8-17.6 16.6-19.7 17.8-1 .5-1.9 1.2-2.2 1.5-1.1 1.4-11 8.1-19 12.8-23.6 14.1-50.3 22.9-78.9 26-8.8 1-38.4 1-44.6 0-2.7-.4-6.8-1-9-1.3-2.2-.3-6-1-8.5-1.6-2.5-.5-5.3-1.1-6.3-1.3-4.1-.9-17.4-4.6-19.2-5.4-1.1-.5-4.6-1.9-7.7-3-7-2.5-26.6-12.1-30.7-15-1.6-1.2-3.2-2.1-3.5-2.1-.3 0-5.4-3.5-11.3-7.7-11.9-8.6-32.3-28.2-39.8-38.3-2.7-3.6-5.2-6.7-5.6-7-1.5-1.2-12.7-20.2-16.7-28.5-10.3-21-15.9-40-18.9-64-1-7.7-1-37-.1-45.5 3.3-28.3 12.6-55.1 28.1-81 15.2-25.2 41.1-50.9 66.7-66 13.5-8 36.6-18.3 46-20.5.8-.2 6-1.5 11.5-2.8 9.6-2.5 11.7-2.9 23-4.3 2.8-.3 5.1-.7 5.3-.9.6-.5 40.5.3 43.2.8z"/><path d="M334.5 268.4c-33.5 6.7-58.2 31.1-66.1 65.5-1.5 6.2-1.4 24.8.1 31.6 2.4 10.6 2.8 11.9 6.2 19.5 10.5 23.3 34.2 41.8 59.8 46.7 4.9 1 26.8 1 31.1 0 30.8-6.8 53.3-26.7 63.4-56.3 2.9-8.3 3.5-13.5 3.4-27.4-.1-10.4-.6-14-2.8-21.3-8.4-28.2-29.9-49.2-58.1-56.9-9.3-2.5-27.7-3.2-37-1.4z"/></svg>