<?xml version="1.0" encoding="iso-8859-1"?>
<!-- Generator: Adobe Illustrator 19.0.0, SVG Export Plug-In . SVG Version: 6.00 Build 0)  -->
<svg xmlns="http://www.w3.org/2000/svg" xmlns:xlink="http://www.w3.org/1999/xlink" version="1.1" id="Capa_1" x="0px" y="0px" viewBox="0 0 512 512" style="enable-background:new 0 0 512 512;" xml:space="preserve" width="512px" height="512px">
<g>
	<g>
		<path d="M256,151c-33.091,0-60,26.909-60,60s26.909,60,60,60s60-26.909,60-60S289.091,151,256,151z" fill="#cfd2d2"/>
	</g>
</g>
<g>
	<g>
		<path d="M497,211h-20.79c-5.742-28.037-16.89-54.902-32.725-78.838l14.033-14.048c5.859-5.859,5.859-15.352,0-21.211    l-42.422-42.422c-5.859-5.859-15.352-5.859-21.211,0l-14.048,14.033C355.902,52.68,329.037,41.532,301,35.79V15    c0-8.291-6.709-15-15-15h-60c-8.291,0-15,6.709-15,15v20.79c-28.037,5.742-54.902,16.89-78.838,32.725l-14.048-14.033    c-5.859-5.859-15.352-5.859-21.211,0L54.481,96.903c-5.859,5.859-5.859,15.352,0,21.211l14.033,14.048    C52.68,156.098,41.532,182.963,35.79,211H15c-8.291,0-15,6.709-15,15v60c0,8.291,6.709,15,15,15h20.79    c5.742,28.037,16.89,54.902,32.725,78.838l-14.033,14.048c-5.859,5.859-5.859,15.352,0,21.211l42.422,42.422    c5.859,5.859,15.352,5.859,21.211,0l14.048-14.033c23.936,15.835,50.801,26.982,78.838,32.725V497c0,8.291,6.709,15,15,15h60    c8.291,0,15-6.709,15-15v-20.79c28.037-5.742,54.902-16.89,78.838-32.725l14.048,14.033c5.859,5.859,15.352,5.859,21.211,0    l42.422-42.422c5.859-5.859,5.859-15.352,0-21.211l-14.033-14.048c15.835-23.936,26.982-50.801,32.725-78.838H497    c8.291,0,15-6.709,15-15v-60C512,217.709,505.291,211,497,211z M256,391c-75.846,0-135-62.547-135-135    c0-74.559,60.441-135,135-135s135,60.441,135,135C391,328.568,331.747,391,256,391z" fill="#cfd2d2"/>
	</g>
</g>
<g>
	<g>
		<path d="M256,271c-35.623,0-66.877,17.972-85.739,45.242C189.284,343.228,220.553,361,256,361s66.716-17.772,85.739-44.758    C322.877,288.972,291.623,271,256,271z" fill="#cfd2d2"/>
	</g>
</g>
<g>
</g>
<g>
</g>
<g>
</g>
<g>
</g>
<g>
</g>
<g>
</g>
<g>
</g>
<g>
</g>
<g>
</g>
<g>
</g>
<g>
</g>
<g>
</g>
<g>
</g>
<g>
</g>
<g>
</g>
</svg>
