<?xml version="1.0" encoding="utf-8"?>
<!-- Generator: Adobe Illustrator 22.0.1, SVG Export Plug-In . SVG Version: 6.00 Build 0)  -->
<svg version="1.1" id="icon" xmlns="http://www.w3.org/2000/svg" xmlns:xlink="http://www.w3.org/1999/xlink" x="0px" y="0px"
	 viewBox="0 0 24 24" style="enable-background:new 0 0 24 24;" xml:space="preserve">
<style type="text/css">
	.st0{fill:#CFD2D2;}
</style>
<g>
	<g>
		<path class="st0" d="M12,7.1c-1.6,0-2.8,1.3-2.8,2.8s1.3,2.8,2.8,2.8s2.8-1.3,2.8-2.8S13.6,7.1,12,7.1z"/>
	</g>
</g>
<g>
	<g>
		<path class="st0" d="M23.3,9.9h-1c-0.3-1.3-0.8-2.6-1.5-3.7l0.7-0.7c0.3-0.3,0.3-0.7,0-1l-2-2c-0.3-0.3-0.7-0.3-1,0l-0.7,0.7
			c-1.1-0.7-2.4-1.3-3.7-1.5v-1c0-0.4-0.3-0.7-0.7-0.7h-2.8c-0.4,0-0.7,0.3-0.7,0.7v1C8.6,1.9,7.3,2.5,6.2,3.2L5.5,2.6
			c-0.3-0.3-0.7-0.3-1,0l-2,2c-0.3,0.3-0.3,0.7,0,1l0.7,0.7C2.5,7.3,1.9,8.6,1.7,9.9h-1C0.3,9.9,0,10.2,0,10.6v2.8
			c0,0.4,0.3,0.7,0.7,0.7h1c0.3,1.3,0.8,2.6,1.5,3.7l-0.7,0.7c-0.3,0.3-0.3,0.7,0,1l2,2c0.3,0.3,0.7,0.3,1,0l0.7-0.7
			c1.1,0.7,2.4,1.3,3.7,1.5v1c0,0.4,0.3,0.7,0.7,0.7h2.8c0.4,0,0.7-0.3,0.7-0.7v-1c1.3-0.3,2.6-0.8,3.7-1.5l0.7,0.7
			c0.3,0.3,0.7,0.3,1,0l2-2c0.3-0.3,0.3-0.7,0-1l-0.7-0.7c0.7-1.1,1.3-2.4,1.5-3.7h1c0.4,0,0.7-0.3,0.7-0.7v-2.8
			C24,10.2,23.7,9.9,23.3,9.9z M12,18.3c-3.6,0-6.3-2.9-6.3-6.3c0-3.5,2.8-6.3,6.3-6.3s6.3,2.8,6.3,6.3C18.3,15.4,15.6,18.3,12,18.3
			z"/>
	</g>
</g>
<g>
	<g>
		<path class="st0" d="M12,12.7c-1.7,0-3.1,0.8-4,2.1c0.9,1.3,2.4,2.1,4,2.1s3.1-0.8,4-2.1C15.1,13.5,13.7,12.7,12,12.7z"/>
	</g>
</g>
</svg>
