<?xml version="1.0" encoding="utf-8"?>
<svg version="1.1" id="icon" xmlns="http://www.w3.org/2000/svg" xmlns:xlink="http://www.w3.org/1999/xlink" x="0px" y="0px"
	 viewBox="0 0 24 24" style="enable-background:new 0 0 24 24;" xml:space="preserve">
<style type="text/css">
	.st0{fill:#A8ADAD;}
</style>
<g>
	<path class="st0" d="M23.7,8.4l-6.9-6.9c-0.2-0.2-0.4-0.3-0.6-0.3c-0.2,0-0.4,0.1-0.6,0.3c-0.2,0.2-0.3,0.4-0.3,0.6v3.4h-3
		C6.1,5.6,2.2,7.4,0.7,11C0.2,12.2,0,13.7,0,15.4c0,1.5,0.6,3.5,1.7,6c0,0.1,0.1,0.2,0.1,0.3C1.9,21.9,2,22.1,2,22.2
		c0.1,0.1,0.1,0.2,0.2,0.3c0.1,0.2,0.2,0.2,0.4,0.2c0.1,0,0.2,0,0.3-0.1C3,22.5,3,22.4,3,22.2c0-0.1,0-0.2,0-0.4c0-0.2,0-0.3,0-0.3
		c0-0.6-0.1-1.2-0.1-1.6c0-0.9,0.1-1.7,0.2-2.4c0.2-0.7,0.4-1.3,0.6-1.9c0.3-0.5,0.6-1,1.1-1.4c0.4-0.4,0.9-0.7,1.4-0.9
		c0.5-0.2,1.1-0.4,1.8-0.6c0.7-0.1,1.4-0.2,2.1-0.3c0.7-0.1,1.5-0.1,2.4-0.1h3v3.4c0,0.2,0.1,0.4,0.3,0.6c0.2,0.2,0.4,0.3,0.6,0.3
		c0.2,0,0.4-0.1,0.6-0.3l6.9-6.9C23.9,9.4,24,9.2,24,9C24,8.8,23.9,8.6,23.7,8.4z"/>
</g>
</svg>
