<?xml version="1.0" encoding="utf-8"?>
<!-- Generator: Adobe Illustrator 22.0.1, SVG Export Plug-In . SVG Version: 6.00 Build 0)  -->
<svg version="1.1" id="Capa_1" xmlns="http://www.w3.org/2000/svg" xmlns:xlink="http://www.w3.org/1999/xlink" x="0px" y="0px"
	 viewBox="0 0 2048 512" style="enable-background:new 0 0 2048 512;" xml:space="preserve">
<style type="text/css">
	.st0{fill:#FFFFFF;}
</style>
<g>
	<path class="st0" d="M256,0C114.6,0,0,114.6,0,256s114.6,256,256,256s256-114.6,256-256S397.4,0,256,0z M353.7,130.4h-35.4
		c-27.8,0-33.1,13.2-33.1,32.6v42.7h66.2v66.9h-66.2v171.6h-69.1V272.5h-57.7v-66.9h57.7v-49.3c0-57.2,35-88.4,86-88.4l51.6,0.1
		V130.4L353.7,130.4z"/>
</g>
<g>
	<g>
		<path class="st0" d="M768,0C626.6,0,512,114.6,512,256s114.6,256,256,256s256-114.6,256-256S909.4,0,768,0z M895.4,198.5l0.2,8.2
			c0,83.3-63.4,179.3-179.3,179.3c-35.6,0-68.7-10.4-96.6-28.3c4.9,0.6,10,0.9,15,0.9c29.5,0,56.7-10.1,78.3-27
			c-27.6-0.5-50.8-18.8-58.9-43.8c3.9,0.7,7.8,1.1,11.9,1.1c5.8,0,11.3-0.7,16.6-2.2c-28.8-5.8-50.6-31.3-50.6-61.8v-0.8
			c8.5,4.7,18.2,7.6,28.5,7.9c-16.9-11.3-28-30.6-28-52.4c0-11.6,3.1-22.4,8.5-31.7c31.1,38.1,77.5,63.2,129.9,65.9
			c-1.1-4.6-1.6-9.4-1.6-14.4c0-34.8,28.2-63,63-63c18.1,0,34.5,7.6,46,19.9c14.3-2.8,27.8-8.1,40-15.3
			c-4.7,14.7-14.7,27.1-27.7,34.9c12.7-1.5,24.9-4.9,36.2-9.9C918.4,178.6,907.7,189.7,895.4,198.5z"/>
	</g>
</g>
<path class="st0" d="M1280,0c-141.4,0-256,114.6-256,256s114.6,256,256,256s256-114.6,256-256S1421.4,0,1280,0z M1205.9,385.6
	c-72.2,0-129.6-57.4-129.6-129.6s57.4-129.6,129.6-129.6c35.2,0,64.8,13,87,35.2l-35.2,33.3c-9.3-9.3-25.9-20.4-51.8-20.4
	c-44.4,0-79.6,37-79.6,81.5c0,44.4,35.2,81.5,79.6,81.5c51.8,0,70.4-37,74.1-55.5h-74.1v-44.4h122.2c1.9,7.4,1.9,13,1.9,22.2
	C1330,333.8,1280,385.6,1205.9,385.6z M1483.7,274.5h-37v37h-37v-37h-37v-37h37v-37h37v37h37V274.5z"/>
<path class="st0" d="M1792,0c-141.4,0-256,114.6-256,256s114.6,256,256,256s256-114.6,256-256S1933.4,0,1792,0z M1938.7,368.3
	l-44.9,0.6c0,0-9.6,1.9-22.3-6.8c-16.8-11.5-32.6-41.5-45-37.6c-12.5,4-12.1,30.9-12.1,30.9s0.1,5.8-2.8,8.8c-3.1,3.3-9.2,4-9.2,4
	h-20.1c0,0-44.3,2.7-83.4-38c-42.6-44.3-80.2-132.3-80.2-132.3s-2.2-5.8,0.2-8.6c2.6-3.1,9.9-3.3,9.9-3.3l48-0.3
	c0,0,4.5,0.8,7.8,3.1c2.7,2,4.2,5.6,4.2,5.6s7.8,19.6,18,37.4c20.1,34.7,29.4,42.3,36.2,38.5c9.9-5.4,7-49,7-49s0.2-15.8-5-22.9
	c-4-5.5-11.6-7.1-14.9-7.5c-2.7-0.4,1.7-6.6,7.5-9.5c8.6-4.2,23.9-4.5,41.9-4.3c14.1,0.1,18.1,1,23.6,2.3
	c16.6,4,10.9,19.4,10.9,56.5c0,11.9-2.1,28.5,6.4,34.1c3.7,2.4,12.7,0.4,35.2-37.9c10.7-18.1,18.7-39.4,18.7-39.4s1.7-3.8,4.5-5.4
	c2.8-1.7,6.5-1.1,6.5-1.1l50.5-0.3c0,0,15.2-1.8,17.6,5c2.6,7.2-5.7,24-26.3,51.5c-33.9,45.2-37.7,41-9.5,67.1
	c26.9,25,32.5,37.1,33.4,38.6C1962.2,366.8,1938.7,368.3,1938.7,368.3z"/>
</svg>
