<?xml version="1.0" encoding="utf-8"?>
<!-- Generator: Adobe Illustrator 19.2.0, SVG Export Plug-In . SVG Version: 6.00 Build 0)  -->
<svg version="1.1" id="Layer_1" xmlns="http://www.w3.org/2000/svg" xmlns:xlink="http://www.w3.org/1999/xlink" x="0px" y="0px"
	 viewBox="0 0 24 24" style="enable-background:new 0 0 24 24;" xml:space="preserve">
<style type="text/css">
	.st0{fill:#4CA2F1;}
	.st1{fill:#1B5199;}
</style>
<path class="st0" d="M16.6,17.1c-0.4-1.5-1-2.9-1.6-4.3c-0.9-1.9-1.8-3.9-2.8-5.8c-0.7-1.5-1.1-3.1-1-4.7c0.1-0.6,0.2-1.3,0.2-1.9
	c0,0,0-0.1,0-0.1C11.5,0,11.4,0,11.2,0c-0.1,0-0.3,0.2-0.4,0.2C9.8,1.1,8.9,2,8.1,3c-0.4,0.6-0.8,1.3-0.9,2C7.2,5.8,7.4,6.6,7.6,7.3
	c0.6,1.9,1.4,3.6,2.2,5.4c0.7,1.6,1.5,3.2,2.2,4.7c0.5,1,0.7,2,0.5,3.1c-0.1,0.8-0.4,1.6-0.6,2.4c-0.1,0.3-0.2,0.6-0.2,0.8
	c0,0.3,0.1,0.4,0.3,0.3c0.2-0.1,0.3-0.2,0.4-0.3c1.5-1.2,2.7-2.6,3.7-4.3C16.7,18.7,16.8,17.9,16.6,17.1z"/>
<path class="st1" d="M8,16c-0.3-1.2-0.7-2.3-1.3-3.4C6,11,5.3,9.5,4.6,8C4,6.8,3.7,5.6,3.8,4.3c0-0.5,0.1-1,0.2-1.5c0,0,0-0.1,0-0.1
	c0-0.2-0.1-0.3-0.2-0.2c-0.1,0-0.3,0.1-0.3,0.2C2.6,3.3,1.9,4.1,1.3,4.9C1,5.4,0.7,5.9,0.6,6.5C0.6,7.1,0.7,7.7,0.9,8.2
	c0.4,1.5,1.1,2.8,1.8,4.2c0.6,1.2,1.2,2.5,1.8,3.7C4.8,17,5,17.8,4.8,18.6c-0.1,0.6-0.3,1.3-0.4,1.9c-0.1,0.2-0.1,0.5-0.2,0.7
	c0,0.2,0.1,0.3,0.2,0.2c0.1-0.1,0.2-0.1,0.3-0.2c1.2-1,2.1-2.1,2.9-3.4C8.1,17.2,8.1,16.6,8,16z"/>
<path class="st1" d="M23.3,16c-0.3-1.2-0.7-2.3-1.3-3.4c-0.7-1.5-1.4-3-2.2-4.5c-0.6-1.2-0.9-2.4-0.8-3.7c0-0.5,0.1-1,0.2-1.5
	c0,0,0-0.1,0-0.1c0-0.2-0.1-0.3-0.2-0.2c-0.1,0-0.3,0.1-0.3,0.2c-0.8,0.6-1.5,1.3-2.1,2.2C16.3,5.4,16,6,16,6.6
	c-0.1,0.6,0.1,1.2,0.3,1.7c0.4,1.5,1.1,2.8,1.8,4.2c0.6,1.2,1.2,2.5,1.8,3.7c0.4,0.8,0.6,1.6,0.4,2.4c-0.1,0.6-0.3,1.3-0.4,1.9
	c-0.1,0.2-0.1,0.5-0.2,0.7c0,0.2,0.1,0.3,0.2,0.2c0.1-0.1,0.2-0.1,0.3-0.2c1.2-1,2.1-2.1,2.9-3.4C23.4,17.3,23.4,16.7,23.3,16z"/>
</svg>
